# This file uses centimeters as units for non-parametric coordinates.

g default
v -123.643173 2.591278 -89.802269
v -87.293915 2.591278 -125.426689
v 87.293915 2.591278 125.426689
v 123.643173 2.591278 89.802269
v 87.293915 24.232147 125.426689
v 123.643173 24.232147 89.802269
v -123.643173 24.232147 -89.802269
v -87.293915 24.232147 -125.426689
v -87.293915 317.500427 125.426689
v -123.643173 317.500427 89.802269
v 123.643173 317.500427 -89.802269
v 87.293915 317.500427 -125.426689
v 123.643173 339.141266 -89.802269
v 87.293915 339.141266 -125.426689
v -87.293915 339.141266 125.426689
v -123.643173 339.141266 89.802269
v 167.563965 82.861328 125.426689
v 167.563965 46.512070 89.802269
v 167.563965 293.798401 -89.802269
v 167.563965 257.449158 -125.426689
v 145.923096 293.798401 -89.802269
v 145.923096 257.449158 -125.426689
v 145.923096 82.861328 125.426689
v 145.923096 46.512070 89.802269
v -147.345169 46.512520 -89.802910
v -147.345169 82.861961 -125.427147
v -147.345169 257.448517 125.427147
v -147.345169 293.797974 89.802910
v -168.986038 257.448517 125.427147
v -168.986038 293.797974 89.802910
v -168.986038 46.512520 -89.802910
v -168.986038 82.861961 -125.427147
v 89.802910 46.512520 167.563965
v 125.427147 82.861961 167.563965
v -125.427147 257.448517 167.563965
v -89.802910 293.797974 167.563965
v -125.427147 257.448517 145.923096
v -89.802910 293.797974 145.923096
v 89.802910 46.512520 145.923096
v 125.427147 82.861961 145.923096
v -125.426689 82.861328 -147.345169
v -89.802269 46.512070 -147.345169
v 89.802269 293.798401 -147.345169
v 125.426689 257.449158 -147.345169
v 89.802269 293.798401 -168.986038
v 125.426689 257.449158 -168.986038
v -125.426689 82.861328 -168.986038
v -89.802269 46.512070 -168.986038
v -101.718277 70.443947 150.777298
v 101.718277 70.443947 150.777298
v 101.718277 269.866547 150.777298
v -101.718277 269.866547 150.777298
v -101.718277 320.932526 99.711296
v 101.718277 320.932526 99.711296
v 101.718277 320.932526 -99.711296
v -101.718277 320.932526 -99.711296
v -101.718277 269.866547 -150.777298
v 101.718277 269.866547 -150.777298
v 101.718277 70.443947 -150.777298
v -101.718277 70.443947 -150.777298
v -101.718277 19.377945 -99.711296
v 101.718277 19.377945 -99.711296
v 101.718277 19.377945 99.711296
v -101.718277 19.377945 99.711296
v 150.777298 70.443947 -101.718277
v 150.777298 70.443947 101.718277
v 150.777298 269.866547 -101.718277
v 150.777298 269.866547 101.718277
v -150.777298 70.443947 -101.718277
v -150.777298 70.443947 101.718277
v -150.777298 269.866547 101.718277
v -150.777298 269.866547 -101.718277
v -160.806015 9.349227 160.806015
v 160.806015 9.349227 160.806015
v 103.352638 68.841835 175.679581
v -103.352638 68.841835 175.679581
v 160.806015 330.961273 160.806015
v 103.352638 271.468658 175.679581
v -160.806015 330.961273 160.806015
v -103.352638 271.468658 175.679581
v 103.352638 345.834808 101.313408
v -103.352638 345.834808 101.313408
v 160.806015 330.961273 -160.806015
v 103.352638 345.834808 -101.313408
v -160.806015 330.961273 -160.806015
v -103.352638 345.834808 -101.313408
v 103.352638 271.468658 -175.679581
v -103.352638 271.468658 -175.679581
v 160.806015 9.349227 -160.806015
v 103.352638 68.841835 -175.679581
v -160.806015 9.349227 -160.806015
v -103.352638 68.841835 -175.679581
v 103.352638 -5.524338 -101.313408
v -103.352638 -5.524338 -101.313408
v 103.352638 -5.524338 101.313408
v -103.352638 -5.524338 101.313408
v 175.679581 68.841835 -103.352638
v 175.679581 68.841835 103.352638
v 175.679581 271.468658 -103.352638
v 175.679581 271.468658 103.352638
v -175.679581 68.841835 103.352638
v -175.679581 68.841835 -103.352638
v -175.679581 271.468658 103.352638
v -175.679581 271.468658 -103.352638
vt 0.261283 0.959301
vt 0.211920 0.959390
vt 0.211392 0.667107
vt 0.260755 0.667018
vt 0.211355 0.646118
vt 0.260717 0.646029
vt 0.141041 0.667234
vt 0.190403 0.667145
vt 0.190931 0.959428
vt 0.141569 0.959517
vt 0.261321 0.980290
vt 0.211958 0.980379
vt 0.282272 0.959263
vt 0.281744 0.666980
vt 0.379139 0.943338
vt 0.329778 0.942873
vt 0.332534 0.650602
vt 0.381895 0.651068
vt 0.403081 0.630278
vt 0.452441 0.630743
vt 0.452244 0.651731
vt 0.402883 0.651266
vt 0.449487 0.944001
vt 0.400127 0.943536
vt 0.449290 0.964990
vt 0.399929 0.964524
vt 0.470476 0.944200
vt 0.473232 0.651929
vt 0.639256 0.322736
vt 0.592897 0.322675
vt 0.593257 0.048179
vt 0.639615 0.048240
vt 0.593283 0.028467
vt 0.639641 0.028528
vt 0.527186 0.048093
vt 0.573545 0.048153
vt 0.573186 0.322649
vt 0.526827 0.322588
vt 0.639230 0.342447
vt 0.592872 0.342386
vt 0.658968 0.322761
vt 0.659327 0.048265
vt 0.582251 0.953784
vt 0.532894 0.953009
vt 0.537481 0.660762
vt 0.586838 0.661536
vt 0.608154 0.640880
vt 0.657511 0.641654
vt 0.657181 0.662641
vt 0.607825 0.661866
vt 0.652594 0.954888
vt 0.603237 0.954113
vt 0.652265 0.975874
vt 0.602908 0.975100
vt 0.673580 0.955217
vt 0.678168 0.662970
vt 0.238553 0.052362
vt 0.284911 0.052226
vt 0.285712 0.326721
vt 0.239353 0.326857
vt 0.285769 0.346433
vt 0.239411 0.346568
vt 0.219642 0.326914
vt 0.173283 0.327049
vt 0.172483 0.052554
vt 0.218841 0.052419
vt 0.238495 0.032650
vt 0.284854 0.032515
vt 0.304623 0.052169
vt 0.305424 0.326664
vt 0.345942 0.037116
vt 0.392300 0.036931
vt 0.393397 0.311425
vt 0.347039 0.311610
vt 0.459546 0.330873
vt 0.413188 0.331058
vt 0.413109 0.311346
vt 0.459467 0.311161
vt 0.412012 0.036852
vt 0.458370 0.036667
vt 0.411933 0.017141
vt 0.458291 0.016955
vt 0.478082 0.036588
vt 0.479179 0.311082
vt 0.136310 0.541800
vt 0.141591 0.417283
vt 0.262919 0.422937
vt 0.257633 0.546948
vt 0.360713 0.549071
vt 0.365097 0.425050
vt 0.486672 0.429277
vt 0.481792 0.552785
vt 0.585082 0.554594
vt 0.589171 0.430842
vt 0.710846 0.434835
vt 0.706078 0.558532
vt 0.809385 0.559691
vt 0.813675 0.436050
vt 0.935178 0.439449
vt 0.930590 0.561926
vt 0.937894 0.338553
vt 0.814050 0.334676
vt 0.817610 0.213281
vt 0.941212 0.217213
vt 0.808413 0.661014
vt 0.932280 0.662921
vt 0.932284 0.783748
vt 0.808629 0.783019
vt 0.083994 0.590607
vt 0.092124 0.365333
vt 0.130634 0.406480
vt 0.125554 0.553105
vt 0.315367 0.374108
vt 0.273638 0.411815
vt 0.308760 0.598410
vt 0.269066 0.557536
vt 0.354123 0.414469
vt 0.350241 0.560343
vt 0.539079 0.380076
vt 0.497372 0.418088
vt 0.533290 0.603744
vt 0.493291 0.563319
vt 0.578116 0.420295
vt 0.574624 0.565830
vt 0.763252 0.385471
vt 0.721531 0.423613
vt 0.757377 0.609639
vt 0.717523 0.569096
vt 0.802514 0.425545
vt 0.798863 0.571047
vt 0.987457 0.390423
vt 0.945801 0.428266
vt 0.981550 0.611638
vt 0.941924 0.572271
vt 0.803526 0.345936
vt 0.949186 0.349064
vt 0.768223 0.161361
vt 0.806355 0.202743
vt 0.991852 0.166194
vt 0.951705 0.205887
vt 0.942467 0.651523
vt 0.796823 0.650673
vt 0.983171 0.834069
vt 0.943843 0.793936
vt 0.759499 0.835630
vt 0.798472 0.794664
vn 0.000000 -1.000000 0.000000
vn 0.000000 -1.000000 0.000000
vn 0.000000 -1.000000 0.000000
vn 0.000000 -1.000000 0.000000
vn 0.699950 0.000000 0.714192
vn 0.699950 0.000000 0.714192
vn 0.699950 0.000000 0.714192
vn 0.699950 0.000000 0.714192
vn 0.000000 1.000000 0.000000
vn 0.000000 1.000000 0.000000
vn 0.000000 1.000000 0.000000
vn 0.000000 1.000000 0.000000
vn -0.699950 0.000000 -0.714192
vn -0.699950 0.000000 -0.714192
vn -0.699950 0.000000 -0.714192
vn -0.699950 0.000000 -0.714192
vn 0.714192 0.000000 -0.699950
vn 0.714192 0.000000 -0.699950
vn 0.714192 0.000000 -0.699950
vn 0.714192 0.000000 -0.699950
vn -0.714192 0.000000 0.699950
vn -0.714192 0.000000 0.699950
vn -0.714192 0.000000 0.699950
vn -0.714192 0.000000 0.699950
vn 0.000000 -1.000000 0.000000
vn 0.000000 -1.000000 0.000000
vn 0.000000 -1.000000 0.000000
vn 0.000000 -1.000000 0.000000
vn 0.699950 0.000000 -0.714192
vn 0.699950 0.000000 -0.714192
vn 0.699950 0.000000 -0.714192
vn 0.699950 0.000000 -0.714192
vn 0.000000 1.000000 0.000000
vn 0.000000 1.000000 0.000000
vn 0.000000 1.000000 0.000000
vn 0.000000 1.000000 0.000000
vn -0.699950 0.000000 0.714192
vn -0.699950 0.000000 0.714192
vn -0.699950 0.000000 0.714192
vn -0.699950 0.000000 0.714192
vn -0.714192 0.000000 -0.699950
vn -0.714192 0.000000 -0.699950
vn -0.714192 0.000000 -0.699950
vn -0.714192 0.000000 -0.699950
vn 0.714192 0.000000 0.699950
vn 0.714192 0.000000 0.699950
vn 0.714192 0.000000 0.699950
vn 0.714192 0.000000 0.699950
vn 1.000000 0.000000 0.000000
vn 1.000000 0.000000 0.000000
vn 1.000000 0.000000 0.000000
vn 1.000000 0.000000 0.000000
vn 0.000000 0.699950 -0.714192
vn 0.000000 0.699950 -0.714192
vn 0.000000 0.699950 -0.714192
vn 0.000000 0.699950 -0.714192
vn -1.000000 0.000000 0.000000
vn -1.000000 0.000000 0.000000
vn -1.000000 0.000000 0.000000
vn -1.000000 0.000000 0.000000
vn 0.000000 -0.699950 0.714192
vn 0.000000 -0.699950 0.714192
vn 0.000000 -0.699950 0.714192
vn 0.000000 -0.699950 0.714192
vn 0.000000 -0.714192 -0.699950
vn 0.000000 -0.714192 -0.699950
vn 0.000000 -0.714192 -0.699950
vn 0.000000 -0.714192 -0.699950
vn 0.000000 0.714192 0.699950
vn 0.000000 0.714192 0.699950
vn 0.000000 0.714192 0.699950
vn 0.000000 0.714192 0.699950
vn 1.000000 0.000000 0.000000
vn 1.000000 0.000000 0.000000
vn 1.000000 0.000000 0.000000
vn 1.000000 0.000000 0.000000
vn 0.000000 0.699946 0.714195
vn 0.000000 0.699946 0.714195
vn 0.000000 0.699946 0.714195
vn 0.000000 0.699946 0.714195
vn -1.000000 0.000000 0.000000
vn -1.000000 0.000000 0.000000
vn -1.000000 0.000000 0.000000
vn -1.000000 0.000000 0.000000
vn 0.000000 -0.699946 -0.714195
vn 0.000000 -0.699946 -0.714195
vn 0.000000 -0.699946 -0.714195
vn 0.000000 -0.699946 -0.714195
vn 0.000000 0.714195 -0.699946
vn 0.000000 0.714195 -0.699946
vn 0.000000 0.714195 -0.699946
vn 0.000000 0.714195 -0.699946
vn 0.000000 -0.714195 0.699946
vn 0.000000 -0.714195 0.699946
vn 0.000000 -0.714195 0.699946
vn 0.000000 -0.714195 0.699946
vn 0.000000 0.000000 1.000000
vn 0.000000 0.000000 1.000000
vn 0.000000 0.000000 1.000000
vn 0.000000 0.000000 1.000000
vn -0.714195 0.699947 0.000000
vn -0.714195 0.699947 0.000000
vn -0.714195 0.699947 0.000000
vn -0.714195 0.699947 0.000000
vn 0.000000 0.000000 -1.000000
vn 0.000000 0.000000 -1.000000
vn 0.000000 0.000000 -1.000000
vn 0.000000 0.000000 -1.000000
vn 0.714195 -0.699947 0.000000
vn 0.714195 -0.699947 0.000000
vn 0.714195 -0.699947 0.000000
vn 0.714195 -0.699947 0.000000
vn 0.699946 0.714195 0.000000
vn 0.699946 0.714195 0.000000
vn 0.699946 0.714195 0.000000
vn 0.699946 0.714195 0.000000
vn -0.699946 -0.714195 0.000000
vn -0.699946 -0.714195 0.000000
vn -0.699946 -0.714195 0.000000
vn -0.699946 -0.714195 0.000000
vn 0.000000 0.000000 1.000000
vn 0.000000 0.000000 1.000000
vn 0.000000 0.000000 1.000000
vn 0.000000 0.000000 1.000000
vn 0.714192 0.699950 0.000000
vn 0.714192 0.699950 0.000000
vn 0.714192 0.699950 0.000000
vn 0.714192 0.699950 0.000000
vn 0.000000 0.000000 -1.000000
vn 0.000000 0.000000 -1.000000
vn 0.000000 0.000000 -1.000000
vn 0.000000 0.000000 -1.000000
vn -0.714192 -0.699950 0.000000
vn -0.714192 -0.699950 0.000000
vn -0.714192 -0.699950 0.000000
vn -0.714192 -0.699950 0.000000
vn 0.699950 -0.714192 0.000000
vn 0.699950 -0.714192 0.000000
vn 0.699950 -0.714192 0.000000
vn 0.699950 -0.714192 0.000000
vn -0.699950 0.714192 0.000000
vn -0.699950 0.714192 0.000000
vn -0.699950 0.714192 0.000000
vn -0.699950 0.714192 0.000000
vn 0.000000 0.000000 1.000000
vn 0.000000 0.000000 1.000000
vn 0.000000 0.000000 1.000000
vn 0.000000 0.000000 1.000000
vn 0.000000 1.000000 0.000000
vn 0.000000 1.000000 0.000000
vn 0.000000 1.000000 0.000000
vn 0.000000 1.000000 0.000000
vn 0.000000 0.000000 -1.000000
vn 0.000000 0.000000 -1.000000
vn 0.000000 0.000000 -1.000000
vn 0.000000 0.000000 -1.000000
vn 0.000000 -1.000000 0.000000
vn 0.000000 -1.000000 0.000000
vn 0.000000 -1.000000 0.000000
vn 0.000000 -1.000000 0.000000
vn 1.000000 0.000000 0.000000
vn 1.000000 0.000000 0.000000
vn 1.000000 0.000000 0.000000
vn 1.000000 0.000000 0.000000
vn -1.000000 0.000000 0.000000
vn -1.000000 0.000000 0.000000
vn -1.000000 0.000000 0.000000
vn -1.000000 0.000000 0.000000
vn -0.121997 -0.128244 0.984210
vn 0.121997 -0.128244 0.984210
vn 0.125600 -0.124763 0.984205
vn -0.125600 -0.124763 0.984205
vn 0.121997 -0.128244 0.984210
vn 0.121997 0.128244 0.984210
vn 0.125600 0.124763 0.984205
vn 0.125600 -0.124763 0.984205
vn 0.121997 0.128244 0.984210
vn -0.121997 0.128244 0.984210
vn -0.125600 0.124763 0.984205
vn 0.125600 0.124763 0.984205
vn -0.121997 0.128244 0.984210
vn -0.121997 -0.128244 0.984210
vn -0.125600 -0.124763 0.984205
vn -0.125600 0.124763 0.984205
vn -0.121997 0.984210 0.128244
vn 0.121997 0.984210 0.128244
vn 0.125600 0.984205 0.124763
vn -0.125600 0.984205 0.124763
vn 0.121997 0.984210 0.128244
vn 0.121997 0.984210 -0.128244
vn 0.125600 0.984205 -0.124763
vn 0.125600 0.984205 0.124763
vn 0.121997 0.984210 -0.128244
vn -0.121997 0.984210 -0.128244
vn -0.125600 0.984205 -0.124763
vn 0.125600 0.984205 -0.124763
vn -0.121997 0.984210 -0.128244
vn -0.121997 0.984210 0.128244
vn -0.125600 0.984205 0.124763
vn -0.125600 0.984205 -0.124763
vn -0.121997 0.128244 -0.984210
vn 0.121997 0.128244 -0.984210
vn 0.125600 0.124763 -0.984205
vn -0.125600 0.124763 -0.984205
vn 0.121997 0.128244 -0.984210
vn 0.121997 -0.128244 -0.984210
vn 0.125600 -0.124763 -0.984205
vn 0.125600 0.124763 -0.984205
vn 0.121997 -0.128244 -0.984210
vn -0.121997 -0.128244 -0.984210
vn -0.125600 -0.124763 -0.984205
vn 0.125600 -0.124763 -0.984205
vn -0.121997 -0.128244 -0.984210
vn -0.121997 0.128244 -0.984210
vn -0.125600 0.124763 -0.984205
vn -0.125600 -0.124763 -0.984205
vn -0.121997 -0.984210 -0.128244
vn 0.121997 -0.984210 -0.128244
vn 0.125600 -0.984205 -0.124763
vn -0.125600 -0.984205 -0.124763
vn 0.121997 -0.984210 -0.128244
vn 0.121997 -0.984210 0.128244
vn 0.125600 -0.984205 0.124763
vn 0.125600 -0.984205 -0.124763
vn 0.121997 -0.984210 0.128244
vn -0.121997 -0.984210 0.128244
vn -0.125600 -0.984205 0.124763
vn 0.125600 -0.984205 0.124763
vn -0.121997 -0.984210 0.128244
vn -0.121997 -0.984210 -0.128244
vn -0.125600 -0.984205 -0.124763
vn -0.125600 -0.984205 0.124763
vn 0.984210 -0.128244 0.121997
vn 0.984210 -0.128244 -0.121997
vn 0.984205 -0.124763 -0.125600
vn 0.984205 -0.124763 0.125600
vn 0.984210 -0.128244 -0.121997
vn 0.984210 0.128244 -0.121997
vn 0.984205 0.124763 -0.125600
vn 0.984205 -0.124763 -0.125600
vn 0.984210 0.128244 -0.121997
vn 0.984210 0.128244 0.121997
vn 0.984205 0.124763 0.125600
vn 0.984205 0.124763 -0.125600
vn 0.984210 0.128244 0.121997
vn 0.984210 -0.128244 0.121997
vn 0.984205 -0.124763 0.125600
vn 0.984205 0.124763 0.125600
vn -0.984210 -0.128244 -0.121997
vn -0.984210 -0.128244 0.121997
vn -0.984205 -0.124763 0.125600
vn -0.984205 -0.124763 -0.125600
vn -0.984210 -0.128244 0.121997
vn -0.984210 0.128244 0.121997
vn -0.984205 0.124763 0.125600
vn -0.984205 -0.124763 0.125600
vn -0.984210 0.128244 0.121997
vn -0.984210 0.128244 -0.121997
vn -0.984205 0.124763 -0.125600
vn -0.984205 0.124763 0.125600
vn -0.984210 0.128244 -0.121997
vn -0.984210 -0.128244 -0.121997
vn -0.984205 -0.124763 -0.125600
vn -0.984205 0.124763 -0.125600
vn 0.000000 0.997937 0.064203
vn 0.000000 0.997937 0.064203
vn 0.000000 0.997937 0.064203
vn 0.000000 0.997937 0.064203
vn -0.997853 0.000000 0.065490
vn -0.997853 0.000000 0.065490
vn -0.997853 0.000000 0.065490
vn -0.997853 0.000000 0.065490
vn 0.000000 -0.997937 0.064203
vn 0.000000 -0.997937 0.064203
vn 0.000000 -0.997937 0.064203
vn 0.000000 -0.997937 0.064203
vn 0.997853 0.000000 0.065490
vn 0.997853 0.000000 0.065490
vn 0.997853 0.000000 0.065490
vn 0.997853 0.000000 0.065490
vn 0.000000 0.064203 -0.997937
vn 0.000000 0.064203 -0.997937
vn 0.000000 0.064203 -0.997937
vn 0.000000 0.064203 -0.997937
vn -0.696809 0.091501 0.711396
vn -0.997853 0.065490 0.000000
vn -0.997853 0.065490 0.000000
vn -0.697395 0.091502 0.710822
vn 0.000000 0.064203 0.997937
vn -0.696809 0.091501 0.711396
vn -0.697395 0.091502 0.710822
vn 0.000000 0.064203 0.997937
vn 0.997853 0.065490 0.000000
vn 0.997853 0.065490 0.000000
vn 0.997853 0.065490 0.000000
vn 0.997853 0.065490 0.000000
vn 0.000000 -0.997937 -0.064203
vn 0.000000 -0.997937 -0.064203
vn 0.000000 -0.997937 -0.064203
vn 0.000000 -0.997937 -0.064203
vn -0.997853 0.000000 -0.065490
vn -0.997853 0.000000 -0.065490
vn -0.997853 0.000000 -0.065490
vn -0.997853 0.000000 -0.065490
vn 0.000000 0.997937 -0.064203
vn 0.000000 0.997937 -0.064203
vn 0.000000 0.997937 -0.064203
vn 0.000000 0.997937 -0.064203
vn 0.997853 0.000000 -0.065490
vn 0.997853 0.000000 -0.065490
vn 0.997853 0.000000 -0.065490
vn 0.997853 0.000000 -0.065490
vn 0.000000 -0.064203 0.997937
vn 0.000000 -0.064203 0.997937
vn 0.000000 -0.064203 0.997937
vn 0.000000 -0.064203 0.997937
vn -0.997853 -0.065490 0.000000
vn -0.997853 -0.065490 0.000000
vn -0.997853 -0.065490 0.000000
vn -0.997853 -0.065490 0.000000
vn 0.000000 -0.064203 -0.997937
vn 0.000000 -0.064203 -0.997937
vn 0.000000 -0.064203 -0.997937
vn 0.000000 -0.064203 -0.997937
vn 0.997853 -0.065490 0.000000
vn 0.997853 -0.065490 0.000000
vn 0.997853 -0.065490 0.000000
vn 0.997853 -0.065490 0.000000
vn 0.064203 0.997937 0.000000
vn 0.064203 0.997937 0.000000
vn 0.064203 0.997937 0.000000
vn 0.064203 0.997937 0.000000
vn 0.065490 0.000000 0.997853
vn 0.065490 0.000000 0.997853
vn 0.065490 0.000000 0.997853
vn 0.065490 0.000000 0.997853
vn 0.064203 -0.997937 0.000000
vn 0.064203 -0.997937 0.000000
vn 0.064203 -0.997937 0.000000
vn 0.064203 -0.997937 0.000000
vn 0.065490 0.000000 -0.997853
vn 0.065490 0.000000 -0.997853
vn 0.065490 0.000000 -0.997853
vn 0.065490 0.000000 -0.997853
vn -0.064203 0.997937 0.000000
vn -0.064203 0.997937 0.000000
vn -0.064203 0.997937 0.000000
vn -0.064203 0.997937 0.000000
vn -0.065490 0.000000 -0.997853
vn -0.065490 0.000000 -0.997853
vn -0.065490 0.000000 -0.997853
vn -0.065490 0.000000 -0.997853
vn -0.064203 -0.997937 0.000000
vn -0.064203 -0.997937 0.000000
vn -0.064203 -0.997937 0.000000
vn -0.064203 -0.997937 0.000000
vn -0.065490 0.000000 0.997853
vn -0.065490 0.000000 0.997853
vn -0.065490 0.000000 0.997853
vn -0.065490 0.000000 0.997853
s off
g crateMesh
f 1/1/1 2/2/2 4/3/3 3/4/4
f 3/4/5 4/3/6 6/5/7 5/6/8
f 5/7/9 6/8/10 8/9/11 7/10/12
f 7/11/13 8/12/14 2/2/15 1/1/16
f 2/2/17 8/9/18 6/8/19 4/3/20
f 7/13/21 1/1/22 3/4/23 5/14/24
f 9/15/25 10/16/26 12/17/27 11/18/28
f 11/19/29 12/20/30 14/21/31 13/22/32
f 13/22/33 14/21/34 16/23/35 15/24/36
f 15/24/37 16/23/38 10/25/39 9/26/40
f 10/27/41 16/23/42 14/21/43 12/28/44
f 15/24/45 9/15/46 11/18/47 13/22/48
f 17/29/49 18/30/50 20/31/51 19/32/52
f 19/32/53 20/31/54 22/33/55 21/34/56
f 21/35/57 22/36/58 24/37/59 23/38/60
f 23/39/61 24/40/62 18/30/63 17/29/64
f 18/30/65 24/37/66 22/36/67 20/31/68
f 23/41/69 17/29/70 19/32/71 21/42/72
f 25/43/73 26/44/74 28/45/75 27/46/76
f 27/47/77 28/48/78 30/49/79 29/50/80
f 29/50/81 30/49/82 32/51/83 31/52/84
f 31/52/85 32/51/86 26/53/87 25/54/88
f 26/55/89 32/51/90 30/49/91 28/56/92
f 31/52/93 25/43/94 27/46/95 29/50/96
f 33/57/97 34/58/98 36/59/99 35/60/100
f 35/60/101 36/59/102 38/61/103 37/62/104
f 37/63/105 38/64/106 40/65/107 39/66/108
f 39/67/109 40/68/110 34/58/111 33/57/112
f 34/58/113 40/69/114 38/70/115 36/59/116
f 39/66/117 33/57/118 35/60/119 37/63/120
f 41/71/121 42/72/122 44/73/123 43/74/124
f 43/75/125 44/76/126 46/77/127 45/78/128
f 45/78/129 46/77/130 48/79/131 47/80/132
f 47/80/133 48/79/134 42/81/135 41/82/136
f 42/72/137 48/79/138 46/77/139 44/73/140
f 47/80/141 41/83/142 43/84/143 45/78/144
f 49/85/145 50/86/146 51/87/147 52/88/148
f 53/89/149 54/90/150 55/91/151 56/92/152
f 57/93/153 58/94/154 59/95/155 60/96/156
f 61/97/157 62/98/158 63/99/159 64/100/160
f 66/101/161 65/102/162 67/103/163 68/104/164
f 69/105/165 70/106/166 71/107/167 72/108/168
f 73/109/169 74/110/170 75/111/171 76/112/172
f 74/110/173 77/113/174 78/114/175 75/111/176
f 77/113/177 79/115/178 80/116/179 78/114/180
f 79/115/181 73/109/182 76/112/183 80/116/184
f 79/115/185 77/113/186 81/117/187 82/118/188
f 77/113/189 83/119/190 84/120/191 81/117/192
f 83/119/193 85/121/194 86/122/195 84/120/196
f 85/121/197 79/115/198 82/118/199 86/122/200
f 85/121/201 83/119/202 87/123/203 88/124/204
f 83/119/205 89/125/206 90/126/207 87/123/208
f 89/125/209 91/127/210 92/128/211 90/126/212
f 91/127/213 85/121/214 88/124/215 92/128/216
f 91/127/217 89/125/218 93/129/219 94/130/220
f 89/125/221 74/131/222 95/132/223 93/129/224
f 74/131/225 73/133/226 96/134/227 95/132/228
f 73/133/229 91/127/230 94/130/231 96/134/232
f 74/131/233 89/125/234 97/135/235 98/136/236
f 89/125/237 83/137/238 99/138/239 97/135/240
f 83/137/241 77/139/242 100/140/243 99/138/244
f 77/139/245 74/131/246 98/136/247 100/140/248
f 91/127/249 73/133/250 101/141/251 102/142/252
f 73/133/253 79/143/254 103/144/255 101/141/256
f 79/143/257 85/145/258 104/146/259 103/144/260
f 85/145/261 91/127/262 102/142/263 104/146/264
f 50/86/265 49/85/266 76/112/267 75/111/268
f 51/87/269 50/86/270 75/111/271 78/114/272
f 52/88/273 51/87/274 78/114/275 80/116/276
f 49/85/277 52/88/278 80/116/279 76/112/280
f 54/90/281 53/89/282 82/118/283 81/117/284
f 55/91/285 54/90/286 81/117/287 84/120/288
f 56/92/289 55/91/290 84/120/291 86/122/292
f 53/89/293 56/92/294 86/122/295 82/118/296
f 58/94/297 57/93/298 88/124/299 87/123/300
f 59/95/301 58/94/302 87/123/303 90/126/304
f 60/96/305 59/95/306 90/126/307 92/128/308
f 57/93/309 60/96/310 92/128/311 88/124/312
f 62/98/313 61/97/314 94/130/315 93/129/316
f 63/99/317 62/98/318 93/129/319 95/132/320
f 64/100/321 63/99/322 95/132/323 96/134/324
f 61/97/325 64/100/326 96/134/327 94/130/328
f 65/102/329 66/101/330 98/136/331 97/135/332
f 67/103/333 65/102/334 97/135/335 99/138/336
f 68/104/337 67/103/338 99/138/339 100/140/340
f 66/101/341 68/104/342 100/140/343 98/136/344
f 70/106/345 69/105/346 102/142/347 101/141/348
f 71/107/349 70/106/350 101/141/351 103/144/352
f 72/108/353 71/107/354 103/144/355 104/146/356
f 69/105/357 72/108/358 104/146/359 102/142/360
