# This file uses feet as units for non-parametric coordinates.

g default
v -365.760010 -7.224974 182.880005
v 0.000000 -7.224974 182.880005
v -365.760010 7.224974 182.880005
v 0.000000 7.224974 182.880005
v -365.760010 7.224974 -182.880005
v 0.000000 7.224974 -182.880005
v -365.760010 -7.224974 -182.880005
v 0.000000 -7.224974 -182.880005
vt 0.993039 0.991453
vt 0.881090 0.771670
vt 0.988715 0.991453
vt 0.881041 0.991598
vt 0.988796 0.883903
vt 0.880976 0.883757
vt 0.988796 0.879645
vt 0.876720 0.883755
vt 0.880971 0.879496
vt 0.881053 0.995856
vt 0.876776 0.991603
vt 0.993055 0.883912
vt 0.988707 0.995711
vt 0.988772 0.771736
vn 0.000000 0.000000 1.000000
vn 0.000000 0.000000 1.000000
vn 0.000000 0.000000 1.000000
vn 0.000000 0.000000 1.000000
vn 0.000000 1.000000 0.000000
vn 0.000000 1.000000 0.000000
vn 0.000000 1.000000 0.000000
vn 0.000000 1.000000 0.000000
vn 0.000000 0.000000 -1.000000
vn 0.000000 0.000000 -1.000000
vn 0.000000 0.000000 -1.000000
vn 0.000000 0.000000 -1.000000
vn 0.000000 -1.000000 0.000000
vn 0.000000 -1.000000 0.000000
vn 0.000000 -1.000000 0.000000
vn 0.000000 -1.000000 0.000000
vn 1.000000 0.000000 0.000000
vn 1.000000 0.000000 0.000000
vn 1.000000 0.000000 0.000000
vn 1.000000 0.000000 0.000000
vn -1.000000 0.000000 0.000000
vn -1.000000 0.000000 0.000000
vn -1.000000 0.000000 0.000000
vn -1.000000 0.000000 0.000000
s off
g RoadStraight
f 1/13/1 2/10/2 4/4/3 3/3/4
f 3/3/5 4/4/6 6/6/7 5/5/8
f 5/5/9 6/6/10 8/9/11 7/7/12
f 7/7/13 8/9/14 2/2/15 1/14/16
f 2/11/17 8/8/18 6/6/19 4/4/20
f 7/12/21 1/1/22 3/3/23 5/5/24
