# This file uses feet as units for non-parametric coordinates.

g default
v -824.575256 -7.224974 403.865204
v -0.000000 -7.224974 182.879990
v -824.575256 7.224974 403.865204
v -0.000000 7.224974 182.879990
v -1008.354858 7.224974 90.911743
v -0.000000 7.224974 -179.326202
v -1008.354858 -7.224974 90.911743
v -0.000000 -7.224974 -179.326202
v -175.779510 7.224974 -171.649765
v -175.779510 -7.224974 -171.649765
v -143.742493 -7.224974 189.157349
v -143.742493 7.224974 189.157349
v -350.220642 7.224974 -148.678864
v -350.220642 -7.224974 -148.678864
v -286.390503 -7.224974 207.941635
v -286.390503 7.224974 207.941635
v -521.995117 7.224974 -110.588417
v -521.995117 -7.224974 -110.588417
v -426.857910 -7.224974 239.089828
v -426.857910 7.224974 239.089828
v -689.795105 7.224974 -57.668476
v -689.795105 -7.224974 -57.668476
v -564.075195 -7.224974 282.364777
v -564.075195 7.224974 282.364777
v -852.342896 7.224974 9.678047
v -852.342896 -7.224974 9.678047
v -696.997559 -7.224974 337.436920
v -696.997559 7.224974 337.436920
vt 0.468296 0.332976
vt 0.392894 0.317363
vt 0.394612 0.310577
vt 0.461575 0.330582
vt 0.438897 0.140142
vt 0.520717 0.164487
vt 0.100912 0.114800
vt 0.016655 0.126890
vt 0.048970 0.305943
vt 0.519587 0.164600
vt 0.015999 0.126280
vt 0.048010 0.299027
vt 0.100468 0.114531
vt 0.439010 0.140400
vt 0.117832 0.296377
vt 0.117164 0.289416
vt 0.185561 0.109976
vt 0.356217 0.123032
vt 0.187005 0.292677
vt 0.186933 0.285697
vt 0.270744 0.112745
vt 0.269919 0.113147
vt 0.256238 0.294960
vt 0.256768 0.287998
vt 0.355396 0.122825
vt 0.185769 0.109974
vt 0.325033 0.303204
vt 0.326163 0.296312
vt 0.117387 0.288870
vt 0.186917 0.285953
vt 0.440609 0.133340
vt 0.356524 0.115896
vt 0.256409 0.287423
vt 0.271274 0.105746
vt 0.325667 0.296017
vt 0.185487 0.102959
vt 0.394569 0.310580
vt 0.099799 0.107555
vt 0.041118 0.300304
vt 0.461979 0.330403
vt 0.009107 0.127557
vt 0.015033 0.119318
vt 0.522721 0.157742
vt 0.527332 0.166838
vt 0.459573 0.337281
vt 0.048017 0.299403
vn 0.461834 0.000000 0.886967
vn 0.422696 0.000000 0.906272
vn 0.422696 0.000000 0.906272
vn 0.461834 0.000000 0.886967
vn 0.000000 1.000000 0.000000
vn 0.000000 1.000000 0.000000
vn 0.000000 1.000000 0.000000
vn 0.000000 1.000000 0.000000
vn -0.461834 0.000000 -0.886967
vn -0.422696 0.000000 -0.906271
vn -0.422696 0.000000 -0.906271
vn -0.461834 0.000000 -0.886967
vn 0.000000 -1.000000 0.000000
vn 0.000000 -1.000000 0.000000
vn 0.000000 -1.000000 0.000000
vn 0.000000 -1.000000 0.000000
vn 1.000000 -0.000000 -0.000000
vn 1.000000 -0.000000 -0.000000
vn 1.000000 -0.000000 -0.000000
vn 1.000000 -0.000000 -0.000000
vn -0.862308 0.000000 0.506384
vn -0.862308 0.000000 0.506384
vn -0.862308 0.000000 0.506384
vn -0.862308 0.000000 0.506384
vn -0.087175 0.000000 -0.996193
vn -0.043629 0.000000 -0.999048
vn -0.043629 0.000000 -0.999048
vn -0.087175 0.000000 -0.996193
vn 0.000000 -1.000000 -0.000000
vn 0.000000 -1.000000 -0.000000
vn 0.000000 -1.000000 -0.000000
vn 0.000000 -1.000000 -0.000000
vn 0.087175 0.000000 0.996193
vn 0.087175 0.000000 0.996193
vn 0.043629 0.000000 0.999048
vn 0.043629 0.000000 0.999048
vn 0.000000 1.000000 -0.000000
vn 0.000000 1.000000 -0.000000
vn 0.000000 1.000000 -0.000000
vn 0.000000 1.000000 -0.000000
vn -0.173687 0.000000 -0.984801
vn -0.173687 0.000000 -0.984801
vn 0.000000 -1.000000 0.000000
vn 0.000000 -1.000000 0.000000
vn 0.173687 0.000000 0.984801
vn 0.173687 0.000000 0.984801
vn 0.000000 1.000000 0.000000
vn 0.000000 1.000000 -0.000000
vn -0.258877 0.000000 -0.965910
vn -0.258877 0.000000 -0.965910
vn 0.000000 -1.000000 -0.000000
vn 0.000000 -1.000000 -0.000000
vn 0.258877 0.000000 0.965910
vn 0.258877 0.000000 0.965910
vn 0.000000 1.000000 -0.000000
vn 0.000000 1.000000 0.000000
vn -0.342095 0.000000 -0.939665
vn -0.342095 0.000000 -0.939665
vn 0.000000 -1.000000 -0.000000
vn 0.000000 -1.000000 0.000000
vn 0.342095 0.000000 0.939665
vn 0.342095 0.000000 0.939665
vn 0.000000 1.000000 -0.000000
vn 0.000000 1.000000 -0.000000
s 1
g RoadTurn30Large
f 1/45/1 27/2/2 28/3/3 3/4/4
s 2
f 3/4/5 28/3/6 25/5/7 5/6/8
s 3
f 5/6/9 25/5/10 26/31/11 7/43/12
s 4
f 7/8/13 26/7/14 27/29/15 1/46/16
s off
f 2/39/17 8/41/18 6/11/19 4/12/20
f 7/44/21 1/1/22 3/4/23 5/6/24
s 3
f 9/13/25 6/11/26 8/42/27 10/38/28
s 4
f 11/37/29 10/14/30 8/10/31 2/40/32
s 1
f 12/16/33 11/15/34 2/9/35 4/12/36
s 2
f 9/13/37 12/16/38 4/12/39 6/11/40
s 3
f 13/17/41 9/13/25 10/38/28 14/36/42
s 4
f 15/35/43 14/18/44 10/14/30 11/37/29
s 1
f 16/20/45 15/19/46 11/15/34 12/16/33
s 2
f 13/17/47 16/20/48 12/16/38 9/13/37
s 3
f 17/21/49 13/17/41 14/36/42 18/34/50
s 4
f 19/33/51 18/22/52 14/18/44 15/35/43
s 1
f 20/24/53 19/23/54 15/19/46 16/20/45
s 2
f 17/21/55 20/24/56 16/20/48 13/17/47
s 3
f 21/25/57 17/21/49 18/34/50 22/32/58
s 4
f 23/30/59 22/26/60 18/22/52 19/33/51
s 1
f 24/28/61 23/27/62 19/23/54 20/24/53
s 2
f 21/25/63 24/28/64 20/24/56 17/21/55
s 3
f 25/5/10 21/25/57 22/32/58 26/31/11
s 4
f 27/29/15 26/7/14 22/26/60 23/30/59
s 1
f 28/3/3 27/2/2 23/27/62 24/28/61
s 2
f 25/5/7 28/3/6 24/28/64 21/25/63
