# This file uses feet as units for non-parametric coordinates.

g default
v -365.760010 -7.224974 182.880005
v 0.000000 -7.224974 182.880005
v -365.760010 7.224974 182.880005
v 0.000000 7.224974 182.880005
v -365.760010 7.224974 -182.880005
v 0.000000 7.224974 -182.880005
v -365.760010 -7.224974 -182.880005
v 0.000000 -7.224974 -182.880005
vt 0.639663 0.995608
vt 0.865737 0.880066
vt 0.639663 0.991254
vt 0.639853 0.880102
vt 0.750861 0.991312
vt 0.750919 0.880324
vt 0.755264 0.991290
vt 0.750937 0.875935
vt 0.755281 0.880334
vt 0.635459 0.880091
vt 0.639860 0.875708
vt 0.750854 0.995713
vt 0.635270 0.991246
vt 0.866072 0.990725
vn 0.000000 0.000000 1.000000
vn 0.000000 0.000000 1.000000
vn 0.000000 0.000000 1.000000
vn 0.000000 0.000000 1.000000
vn 0.000000 1.000000 0.000000
vn 0.000000 1.000000 0.000000
vn 0.000000 1.000000 0.000000
vn 0.000000 1.000000 0.000000
vn 0.000000 0.000000 -1.000000
vn 0.000000 0.000000 -1.000000
vn 0.000000 0.000000 -1.000000
vn 0.000000 0.000000 -1.000000
vn 0.000000 -1.000000 0.000000
vn 0.000000 -1.000000 0.000000
vn 0.000000 -1.000000 0.000000
vn 0.000000 -1.000000 0.000000
vn 1.000000 0.000000 0.000000
vn 1.000000 0.000000 0.000000
vn 1.000000 0.000000 0.000000
vn 1.000000 0.000000 0.000000
vn -1.000000 0.000000 0.000000
vn -1.000000 0.000000 0.000000
vn -1.000000 0.000000 0.000000
vn -1.000000 0.000000 0.000000
s off
g RoadIntersection2
f 1/13/1 2/10/2 4/4/3 3/3/4
f 3/3/5 4/4/6 6/6/7 5/5/8
f 5/5/9 6/6/10 8/9/11 7/7/12
f 7/7/13 8/9/14 2/2/15 1/14/16
f 2/11/17 8/8/18 6/6/19 4/4/20
f 7/12/21 1/1/22 3/3/23 5/5/24
