# This file uses meters as units for non-parametric coordinates.

g default
v -640.960876 14.743838 591.782166
v 0.000000 14.743838 189.629913
v -655.454224 14.743838 583.425476
v 0.000000 14.743838 172.021515
v -947.679443 14.743838 414.630829
v 0.000000 14.743838 -170.301819
v -962.887573 14.743838 405.825989
v 0.000000 14.743838 -187.910217
v -200.288162 14.743838 -170.281738
v -197.177002 14.743838 -152.950333
v -394.397644 14.743838 -117.945694
v -388.272400 14.743838 -101.436829
v -576.338379 14.743838 -32.536648
v -567.390869 14.743838 -17.370550
v -733.955566 14.743837 91.262901
v -722.467041 14.743837 104.608047
v -855.309448 14.743837 236.308060
v -841.687683 14.743837 247.466995
v -137.528290 14.743838 198.901474
v -141.499374 14.743838 181.726807
v -268.685120 14.743838 236.058258
v -276.410339 14.743838 220.151031
v -388.599548 14.743838 292.037567
v -399.668304 14.743838 278.135010
v -496.045990 14.743837 381.893463
v -509.896759 14.743837 370.586945
v -575.053467 14.743837 480.113739
v -591.027771 14.743837 471.818298
v -626.794922 -7.224974 600.000000
v -0.000000 -7.224974 200.000000
v -626.794922 7.224974 600.000000
v -0.000000 7.224974 200.000000
v -973.205078 7.224974 400.000000
v -0.000000 7.224974 -200.000000
v -973.205078 -7.224974 400.000000
v -0.000000 -7.224974 -200.000000
v -201.939636 7.224974 -182.354218
v -201.939636 -7.224974 -182.354218
v -132.553726 -7.224974 211.582748
v -132.553726 7.224974 211.582748
v -397.756317 7.224974 -129.943619
v -397.756317 -7.224974 -129.943619
v -261.088379 -7.224974 245.985229
v -261.088379 7.224974 245.985229
v -581.512695 7.224974 -44.359917
v -581.512695 -7.224974 -44.359917
v -381.706665 -7.224974 302.162567
v -381.706665 7.224974 302.162567
v -746.211365 7.224974 85.212807
v -746.211365 -7.224974 85.212807
v -489.325287 -7.224974 391.822571
v -489.325287 7.224974 391.822571
v -870.276367 7.224974 232.218216
v -870.276367 -7.224974 232.218216
v -564.099182 -7.224974 489.619080
v -564.099182 7.224974 489.619080
vt 0.461830 0.952660
vt 0.995835 0.952660
vt 0.995835 0.971676
vt 0.461830 0.971676
vt 0.461830 0.977571
vt 0.995835 0.977571
vt 0.995835 0.996587
vt 0.461830 0.996587
vt 0.906987 0.996587
vt 0.906987 0.977571
vt 0.818325 0.996587
vt 0.818325 0.977571
vt 0.729027 0.996587
vt 0.729027 0.977571
vt 0.640473 0.996587
vt 0.640473 0.977571
vt 0.551129 0.996587
vt 0.551129 0.977571
vt 0.906987 0.952660
vt 0.906987 0.971676
vt 0.818325 0.952660
vt 0.818325 0.971676
vt 0.729027 0.952660
vt 0.729027 0.971676
vt 0.640473 0.952660
vt 0.640473 0.971676
vt 0.551129 0.952660
vt 0.551129 0.971676
vt 0.736254 0.654957
vt 0.761374 0.602726
vt 0.767805 0.605172
vt 0.742448 0.657936
vt 0.931808 0.667403
vt 0.893577 0.747738
vt 0.938282 0.669831
vt 0.899877 0.750729
vt 0.902532 0.238536
vt 0.938224 0.319986
vt 0.772415 0.375697
vt 0.749068 0.322380
vt 0.745713 0.316356
vt 0.899180 0.232527
vt 0.902492 0.238590
vt 0.749025 0.322419
vt 0.890044 0.753718
vt 0.738677 0.664281
vt 0.937806 0.319825
vt 0.908861 0.235827
vt 0.944336 0.317628
vt 0.767433 0.605361
vt 0.931736 0.667293
vt 0.893508 0.747511
vt 0.742501 0.658259
vt 0.772242 0.375881
vt 0.765744 0.378070
vt 0.742749 0.325147
vt 0.958884 0.405707
vt 0.965709 0.404642
vt 0.783464 0.549230
vt 0.955881 0.582278
vt 0.786105 0.432565
vt 0.779359 0.433610
vt 0.964974 0.493978
vt 0.971886 0.494095
vt 0.790453 0.490680
vt 0.964905 0.493910
vt 0.790026 0.490809
vt 0.783197 0.490678
vt 0.955868 0.582066
vt 0.962664 0.583365
vt 0.786270 0.432429
vt 0.958678 0.405994
vt 0.783871 0.548912
vt 0.777159 0.547606
vn 0.000000 1.000000 -0.000000
vn 0.000000 1.000000 -0.000000
vn 0.000000 1.000000 -0.000000
vn 0.000000 1.000000 -0.000000
vn 0.000000 1.000000 -0.000000
vn 0.000000 1.000000 0.000000
vn 0.000000 1.000000 0.000000
vn 0.000000 1.000000 -0.000000
vn 0.000000 1.000000 -0.000000
vn 0.000000 1.000000 -0.000000
vn -0.000000 1.000000 -0.000000
vn -0.000000 1.000000 -0.000000
vn -0.000000 1.000000 -0.000000
vn -0.000000 1.000000 -0.000000
vn 0.000000 1.000000 0.000000
vn 0.000000 1.000000 0.000000
vn 0.000000 1.000000 -0.000000
vn 0.000000 1.000000 -0.000000
vn 0.000000 1.000000 0.000000
vn 0.000000 1.000000 0.000000
vn 0.000000 1.000000 0.000000
vn 0.000000 1.000000 0.000000
vn 0.000000 1.000000 0.000000
vn 0.000000 1.000000 0.000000
vn -0.000000 1.000000 0.000000
vn -0.000000 1.000000 0.000000
vn -0.000000 1.000000 0.000000
vn -0.000000 1.000000 0.000000
vn 0.869527 0.000000 0.493886
vn 0.834476 0.000000 0.551045
vn 0.834476 0.000000 0.551045
vn 0.869527 0.000000 0.493886
vn 0.000000 1.000000 0.000000
vn 0.000000 1.000000 -0.000000
vn 0.000000 1.000000 -0.000000
vn 0.000000 1.000000 0.000000
vn -0.852387 0.000000 -0.522912
vn -0.811110 0.000000 -0.584893
vn -0.811110 0.000000 -0.584893
vn -0.852387 0.000000 -0.522912
vn 0.000000 -1.000000 0.000000
vn 0.000000 -1.000000 0.000000
vn 0.000000 -1.000000 0.000000
vn 0.000000 -1.000000 0.000000
vn 1.000000 -0.000000 -0.000000
vn 1.000000 -0.000000 -0.000000
vn 1.000000 -0.000000 -0.000000
vn 1.000000 -0.000000 -0.000000
vn -0.500000 0.000000 0.866025
vn -0.500000 0.000000 0.866025
vn -0.500000 0.000000 0.866025
vn -0.500000 0.000000 0.866025
vn -0.173459 0.000000 -0.984841
vn -0.087050 0.000000 -0.996204
vn -0.087050 0.000000 -0.996204
vn -0.173459 0.000000 -0.984841
vn 0.000000 -1.000000 -0.000000
vn 0.000000 -1.000000 0.000000
vn 0.000000 -1.000000 -0.000000
vn 0.000000 -1.000000 -0.000000
vn 0.173459 0.000000 0.984841
vn 0.173459 0.000000 0.984841
vn 0.087050 0.000000 0.996204
vn 0.087050 0.000000 0.996204
vn 0.000000 1.000000 0.000000
vn 0.000000 1.000000 0.000000
vn 0.000000 1.000000 0.000000
vn 0.000000 1.000000 0.000000
vn -0.341672 0.000000 -0.939819
vn -0.341672 0.000000 -0.939819
vn 0.000000 -1.000000 0.000000
vn 0.000000 -1.000000 0.000000
vn 0.341672 0.000000 0.939819
vn 0.341672 0.000000 0.939819
vn 0.000000 1.000000 0.000000
vn 0.000000 1.000000 0.000000
vn -0.525377 0.000000 -0.850870
vn -0.525377 0.000000 -0.850870
vn 0.000000 -1.000000 0.000000
vn 0.000000 -1.000000 0.000000
vn 0.538440 0.000000 0.842664
vn 0.538440 0.000000 0.842664
vn 0.000000 1.000000 0.000000
vn 0.000000 1.000000 0.000000
vn -0.691705 0.000000 -0.722180
vn -0.691705 0.000000 -0.722180
vn 0.000000 -1.000000 0.000000
vn 0.000000 -1.000000 0.000000
vn 0.716721 0.000000 0.697360
vn 0.716721 0.000000 0.697360
vn 0.000000 1.000000 -0.000000
vn 0.000000 1.000000 -0.000000
s 1
g RoadTurn60Small
f 1/1/1 27/27/2 28/28/3 3/4/4
s 2
f 10/10/5 6/6/6 8/7/7 9/9/8
f 12/12/9 10/10/5 9/9/8 11/11/10
f 14/14/11 12/12/9 11/11/10 13/13/12
f 16/16/13 14/14/11 13/13/12 15/15/14
f 18/18/15 16/16/13 15/15/14 17/17/16
f 5/5/17 18/18/15 17/17/16 7/8/18
s 1
f 19/19/19 2/2/20 4/3/21 20/20/22
f 21/21/23 19/19/19 20/20/22 22/22/24
f 23/23/25 21/21/23 22/22/24 24/24/26
f 25/25/27 23/23/25 24/24/26 26/26/28
f 27/27/2 25/25/27 26/26/28 28/28/3
s 4
f 29/29/29 55/30/30 56/31/31 31/32/32
s 5
f 31/32/33 56/31/34 53/33/35 33/34/36
s 6
f 33/34/37 53/33/38 54/35/39 35/36/40
s 7
f 35/37/41 54/38/42 55/39/43 29/40/44
s off
f 30/41/45 36/42/46 34/43/47 32/44/48
f 35/45/49 29/46/50 31/32/51 33/34/52
s 6
f 37/47/53 34/43/54 36/48/55 38/49/56
s 7
f 39/50/57 38/51/58 36/52/59 30/53/60
s 4
f 40/54/61 39/55/62 30/56/63 32/44/64
s 5
f 37/47/65 40/54/66 32/44/67 34/43/68
s 6
f 41/57/69 37/47/53 38/49/56 42/58/70
s 7
f 43/59/71 42/60/72 38/51/58 39/50/57
s 4
f 44/61/73 43/62/74 39/55/62 40/54/61
s 5
f 41/57/75 44/61/76 40/54/66 37/47/65
s 6
f 45/63/77 41/57/69 42/58/70 46/64/78
s 7
f 47/65/79 46/66/80 42/60/72 43/59/71
s 4
f 48/67/81 47/68/82 43/62/74 44/61/73
s 5
f 45/63/83 48/67/84 44/61/76 41/57/75
s 6
f 49/69/85 45/63/77 46/64/78 50/70/86
s 7
f 51/71/87 50/72/88 46/66/80 47/65/79
s 4
f 52/73/89 51/74/90 47/68/82 48/67/81
s 5
f 49/69/91 52/73/92 48/67/84 45/63/83
s 6
f 53/33/38 49/69/85 50/70/86 54/35/39
s 7
f 55/39/43 54/38/42 50/72/88 51/71/87
s 4
f 56/31/31 55/30/30 51/74/90 52/73/89
s 5
f 53/33/35 56/31/34 52/73/92 49/69/91
