# This file uses meters as units for non-parametric coordinates.

g default
v -661.664673 -7.224974 581.886536
v -0.000000 -7.224974 200.000000
v -661.664673 7.224974 581.886536
v -0.000000 7.224974 200.000000
v -1008.016113 7.224974 381.786804
v -0.000000 7.224974 -200.000000
v -1008.016113 -7.224974 381.786804
v -0.000000 -7.224974 -200.000000
v -201.939636 7.224974 -182.354218
v -201.939636 -7.224974 -182.354218
v -132.553726 -7.224974 211.582748
v -132.553726 7.224974 211.582748
v -397.756317 7.224974 -129.943619
v -397.756317 -7.224974 -129.943619
v -261.088379 -7.224974 245.985229
v -261.088379 7.224974 245.985229
v -581.512695 7.224974 -44.359917
v -581.512695 -7.224974 -44.359917
v -381.706665 -7.224974 302.162567
v -381.706665 7.224974 302.162567
v -747.637512 7.224974 71.801628
v -747.637512 -7.224974 71.801628
v -490.751465 -7.224974 378.411407
v -490.751465 7.224974 378.411407
v -891.093506 7.224974 215.018738
v -891.093506 -7.224974 215.018738
v -584.916321 -7.224974 472.419586
v -584.916321 7.224974 472.419586
vt 0.738677 0.664281
vt 0.761374 0.602726
vt 0.767805 0.605172
vt 0.742448 0.657936
vt 0.931808 0.667403
vt 0.893577 0.747738
vt 0.938224 0.319986
vt 0.902532 0.238536
vt 0.742749 0.325147
vt 0.893508 0.747511
vt 0.902492 0.238590
vt 0.749025 0.322419
vt 0.937806 0.319825
vt 0.931736 0.667293
vt 0.765744 0.378070
vt 0.772242 0.375881
vt 0.958884 0.405707
vt 0.955881 0.582278
vt 0.779359 0.433610
vt 0.786105 0.432565
vt 0.964974 0.493978
vt 0.964905 0.493910
vt 0.783197 0.490678
vt 0.790026 0.490809
vt 0.955868 0.582066
vt 0.958678 0.405994
vt 0.777159 0.547606
vt 0.783871 0.548912
vt 0.772415 0.375697
vt 0.786270 0.432429
vt 0.938282 0.669831
vt 0.962664 0.583365
vt 0.790453 0.490680
vt 0.971886 0.494095
vt 0.783464 0.549230
vt 0.965709 0.404642
vt 0.767433 0.605361
vt 0.944336 0.317628
vt 0.745713 0.316356
vt 0.742501 0.658259
vt 0.899180 0.232527
vt 0.908861 0.235827
vt 0.899877 0.750729
vt 0.890044 0.753718
vt 0.736254 0.654957
vt 0.749068 0.322380
vn 0.818805 0.000000 0.574072
vn 0.765716 0.000000 0.643179
vn 0.765716 0.000000 0.643179
vn 0.818805 0.000000 0.574072
vn 0.000000 1.000000 -0.000000
vn 0.000000 1.000000 -0.000000
vn 0.000000 1.000000 -0.000000
vn 0.000000 1.000000 -0.000000
vn -0.818805 0.000000 -0.574072
vn -0.765716 0.000000 -0.643179
vn -0.765716 0.000000 -0.643179
vn -0.818805 0.000000 -0.574072
vn 0.000000 -1.000000 -0.000000
vn 0.000000 -1.000000 -0.000000
vn 0.000000 -1.000000 -0.000000
vn 0.000000 -1.000000 -0.000000
vn 1.000000 -0.000000 -0.000000
vn 1.000000 -0.000000 -0.000000
vn 1.000000 -0.000000 -0.000000
vn 1.000000 -0.000000 -0.000000
vn -0.500251 0.000000 0.865881
vn -0.500251 0.000000 0.865881
vn -0.500251 0.000000 0.865881
vn -0.500251 0.000000 0.865881
vn -0.173459 0.000000 -0.984841
vn -0.087050 0.000000 -0.996204
vn -0.087050 0.000000 -0.996204
vn -0.173459 0.000000 -0.984841
vn 0.000000 -1.000000 -0.000000
vn 0.000000 -1.000000 0.000000
vn 0.000000 -1.000000 -0.000000
vn 0.000000 -1.000000 -0.000000
vn 0.173459 0.000000 0.984841
vn 0.173459 0.000000 0.984841
vn 0.087050 0.000000 0.996204
vn 0.087050 0.000000 0.996204
vn 0.000000 1.000000 0.000000
vn 0.000000 1.000000 0.000000
vn 0.000000 1.000000 0.000000
vn 0.000000 1.000000 0.000000
vn -0.341672 0.000000 -0.939819
vn -0.341672 0.000000 -0.939819
vn 0.000000 -1.000000 0.000000
vn 0.000000 -1.000000 0.000000
vn 0.341672 0.000000 0.939819
vn 0.341672 0.000000 0.939819
vn 0.000000 1.000000 0.000000
vn 0.000000 1.000000 0.000000
vn -0.499519 0.000000 -0.866303
vn -0.499519 0.000000 -0.866303
vn 0.000000 -1.000000 0.000000
vn 0.000000 -1.000000 0.000000
vn 0.499519 0.000000 0.866303
vn 0.499519 0.000000 0.866303
vn 0.000000 1.000000 0.000000
vn 0.000000 1.000000 -0.000000
vn -0.642220 0.000000 -0.766520
vn -0.642220 0.000000 -0.766520
vn 0.000000 -1.000000 0.000000
vn 0.000000 -1.000000 0.000000
vn 0.642220 0.000000 0.766520
vn 0.642220 0.000000 0.766520
vn 0.000000 1.000000 -0.000000
vn 0.000000 1.000000 -0.000000
s 1
g RoadTurn60Small
f 1/45/1 27/2/2 28/3/3 3/4/4
s 2
f 3/4/5 28/3/6 25/5/7 5/6/8
s 3
f 5/6/9 25/5/10 26/31/11 7/43/12
s 4
f 7/8/13 26/7/14 27/29/15 1/46/16
s off
f 2/39/17 8/41/18 6/11/19 4/12/20
f 7/44/21 1/1/22 3/4/23 5/6/24
s 3
f 9/13/25 6/11/26 8/42/27 10/38/28
s 4
f 11/37/29 10/14/30 8/10/31 2/40/32
s 1
f 12/16/33 11/15/34 2/9/35 4/12/36
s 2
f 9/13/37 12/16/38 4/12/39 6/11/40
s 3
f 13/17/41 9/13/25 10/38/28 14/36/42
s 4
f 15/35/43 14/18/44 10/14/30 11/37/29
s 1
f 16/20/45 15/19/46 11/15/34 12/16/33
s 2
f 13/17/47 16/20/48 12/16/38 9/13/37
s 3
f 17/21/49 13/17/41 14/36/42 18/34/50
s 4
f 19/33/51 18/22/52 14/18/44 15/35/43
s 1
f 20/24/53 19/23/54 15/19/46 16/20/45
s 2
f 17/21/55 20/24/56 16/20/48 13/17/47
s 3
f 21/25/57 17/21/49 18/34/50 22/32/58
s 4
f 23/30/59 22/26/60 18/22/52 19/33/51
s 1
f 24/28/61 23/27/62 19/23/54 20/24/53
s 2
f 21/25/63 24/28/64 20/24/56 17/21/55
s 3
f 25/5/10 21/25/57 22/32/58 26/31/11
s 4
f 27/29/15 26/7/14 22/26/60 23/30/59
s 1
f 28/3/3 27/2/2 23/27/62 24/28/61
s 2
f 25/5/7 28/3/6 24/28/64 21/25/63
