# This file uses meters as units for non-parametric coordinates.

g default
v -400.000000 -7.224974 200.000000
v 0.000000 -7.224974 200.000000
v -400.000000 7.224974 200.000000
v 0.000000 7.224974 200.000000
v -400.000000 7.224974 -200.000000
v 0.000000 7.224974 -200.000000
v -400.000000 -7.224974 -200.000000
v 0.000000 -7.224974 -200.000000
vt 0.644127 0.871130
vt 0.866623 0.757969
vt 0.644127 0.866775
vt 0.643656 0.757793
vt 0.752793 0.866983
vt 0.752890 0.757735
vt 0.757101 0.867005
vt 0.752885 0.753418
vt 0.757214 0.757737
vt 0.639340 0.757811
vt 0.643644 0.753474
vt 0.752781 0.871282
vt 0.639821 0.866794
vt 0.866470 0.867323
vn 0.000000 0.000000 1.000000
vn 0.000000 0.000000 1.000000
vn 0.000000 0.000000 1.000000
vn 0.000000 0.000000 1.000000
vn 0.000000 1.000000 0.000000
vn 0.000000 1.000000 0.000000
vn 0.000000 1.000000 0.000000
vn 0.000000 1.000000 0.000000
vn 0.000000 0.000000 -1.000000
vn 0.000000 0.000000 -1.000000
vn 0.000000 0.000000 -1.000000
vn 0.000000 0.000000 -1.000000
vn 0.000000 -1.000000 0.000000
vn 0.000000 -1.000000 0.000000
vn 0.000000 -1.000000 0.000000
vn 0.000000 -1.000000 0.000000
vn 1.000000 0.000000 0.000000
vn 1.000000 0.000000 0.000000
vn 1.000000 0.000000 0.000000
vn 1.000000 0.000000 0.000000
vn -1.000000 0.000000 0.000000
vn -1.000000 0.000000 0.000000
vn -1.000000 0.000000 0.000000
vn -1.000000 0.000000 0.000000
s off
g RoadIntersection
f 1/13/1 2/10/2 4/4/3 3/3/4
f 3/3/5 4/4/6 6/6/7 5/5/8
f 5/5/9 6/6/10 8/9/11 7/7/12
f 7/7/13 8/9/14 2/2/15 1/14/16
f 2/11/17 8/8/18 6/6/19 4/4/20
f 7/12/21 1/1/22 3/3/23 5/5/24
