# This file uses meters as units for non-parametric coordinates.

g default
v -1008.083252 -7.224973 781.916565
v -0.000000 -7.224973 200.000000
v -1008.083252 7.224973 781.916565
v -0.000000 7.224973 200.000000
v -1354.089111 7.224973 581.735352
v -0.000000 7.224973 -200.000000
v -1354.089111 -7.224973 581.735352
v -0.000000 -7.224973 -200.000000
v -271.616669 7.224973 -176.227951
v -271.616669 -7.224973 -176.227951
v -201.899521 -7.224973 217.604034
v -201.899521 7.224973 217.604034
v -534.974426 7.224973 -105.634598
v -534.974426 -7.224973 -105.634598
v -397.695313 -7.224973 269.891510
v -397.695313 7.224973 269.891510
v -782.065491 7.224973 9.633534
v -782.065491 -7.224973 9.633534
v -581.475403 -7.224973 355.281097
v -581.475403 7.224973 355.281097
v -1005.376648 7.224973 166.071548
v -1005.376648 -7.224973 166.071548
v -747.798889 -7.224973 471.847107
v -747.798889 7.224973 471.847107
v -1198.117798 7.224973 358.922699
v -1198.117798 -7.224973 358.922699
v -890.028259 -7.224973 616.869690
v -890.028259 7.224973 616.869690
vt 0.631001 0.617405
vt 0.539391 0.574736
vt 0.542338 0.568139
vt 0.624219 0.613278
vt 0.609333 0.402920
vt 0.716638 0.461404
vt 0.134700 0.366750
vt 0.015839 0.410253
vt 0.093202 0.577573
vt 0.716865 0.461643
vt 0.015707 0.410056
vt 0.090762 0.570828
vt 0.134306 0.366642
vt 0.608820 0.403170
vt 0.179825 0.546251
vt 0.177962 0.539321
vt 0.253388 0.345036
vt 0.494107 0.363470
vt 0.270030 0.529992
vt 0.269367 0.522861
vt 0.374541 0.343920
vt 0.374616 0.343882
vt 0.361761 0.529351
vt 0.362325 0.522203
vt 0.494323 0.363376
vt 0.253343 0.345441
vt 0.452410 0.544386
vt 0.454188 0.537424
vt 0.178018 0.539264
vt 0.269604 0.522773
vt 0.612247 0.396300
vt 0.496083 0.356370
vt 0.362809 0.522470
vt 0.375087 0.336730
vt 0.454172 0.537441
vt 0.252709 0.337867
vt 0.541923 0.568297
vt 0.132414 0.359711
vt 0.084227 0.573879
vt 0.624084 0.612861
vt 0.009172 0.413107
vt 0.013225 0.403262
vt 0.720124 0.454998
vt 0.722876 0.465169
vt 0.620724 0.619611
vt 0.090288 0.570694
vn 0.813350 0.000000 0.581774
vn 0.765917 0.000000 0.642940
vn 0.765917 0.000000 0.642940
vn 0.813350 0.000000 0.581774
vn 0.000000 1.000000 0.000000
vn 0.000000 1.000000 0.000000
vn 0.000000 1.000000 0.000000
vn 0.000000 1.000000 0.000000
vn -0.819228 0.000000 -0.573468
vn -0.766109 0.000000 -0.642711
vn -0.766109 0.000000 -0.642711
vn -0.819228 0.000000 -0.573468
vn 0.000000 -1.000000 0.000000
vn 0.000000 -1.000000 0.000000
vn 0.000000 -1.000000 0.000000
vn 0.000000 -1.000000 0.000000
vn 1.000000 -0.000000 -0.000000
vn 1.000000 -0.000000 -0.000000
vn 1.000000 -0.000000 -0.000000
vn 1.000000 -0.000000 -0.000000
vn -0.500778 0.000000 0.865576
vn -0.500778 0.000000 0.865576
vn -0.500778 0.000000 0.865576
vn -0.500778 0.000000 0.865576
vn -0.173711 0.000000 -0.984797
vn -0.087187 0.000000 -0.996192
vn -0.087187 0.000000 -0.996192
vn -0.173711 0.000000 -0.984797
vn 0.000000 -1.000000 -0.000000
vn 0.000000 -1.000000 -0.000000
vn 0.000000 -1.000000 -0.000000
vn 0.000000 -1.000000 -0.000000
vn 0.173089 0.000000 0.984906
vn 0.173089 0.000000 0.984906
vn 0.086863 0.000000 0.996220
vn 0.086863 0.000000 0.996220
vn 0.000000 1.000000 0.000000
vn 0.000000 1.000000 0.000000
vn 0.000000 1.000000 0.000000
vn 0.000000 1.000000 0.000000
vn -0.342139 0.000000 -0.939649
vn -0.342139 0.000000 -0.939649
vn 0.000000 -1.000000 -0.000000
vn 0.000000 -1.000000 -0.000000
vn 0.340976 0.000000 0.940072
vn 0.340976 0.000000 0.940072
vn 0.000000 1.000000 -0.000000
vn 0.000000 1.000000 -0.000000
vn -0.500165 0.000000 -0.865930
vn -0.500165 0.000000 -0.865930
vn 0.000000 -1.000000 -0.000000
vn 0.000000 -1.000000 -0.000000
vn 0.499672 0.000000 0.866215
vn 0.499672 0.000000 0.866215
vn 0.000000 1.000000 -0.000000
vn 0.000000 1.000000 -0.000000
vn -0.642982 0.000000 -0.765881
vn -0.642982 0.000000 -0.765881
vn 0.000000 -1.000000 0.000000
vn 0.000000 -1.000000 0.000000
vn 0.646670 0.000000 0.762770
vn 0.646670 0.000000 0.762770
vn 0.000000 1.000000 0.000000
vn 0.000000 1.000000 0.000000
s 1
g RoadTurn60Large
f 1/45/1 27/2/2 28/3/3 3/4/4
s 2
f 3/4/5 28/3/6 25/5/7 5/6/8
s 3
f 5/6/9 25/5/10 26/31/11 7/43/12
s 4
f 7/8/13 26/7/14 27/29/15 1/46/16
s off
f 2/39/17 8/41/18 6/11/19 4/12/20
f 7/44/21 1/1/22 3/4/23 5/6/24
s 3
f 9/13/25 6/11/26 8/42/27 10/38/28
s 4
f 11/37/29 10/14/30 8/10/31 2/40/32
s 1
f 12/16/33 11/15/34 2/9/35 4/12/36
s 2
f 9/13/37 12/16/38 4/12/39 6/11/40
s 3
f 13/17/41 9/13/25 10/38/28 14/36/42
s 4
f 15/35/43 14/18/44 10/14/30 11/37/29
s 1
f 16/20/45 15/19/46 11/15/34 12/16/33
s 2
f 13/17/47 16/20/48 12/16/38 9/13/37
s 3
f 17/21/49 13/17/41 14/36/42 18/34/50
s 4
f 19/33/51 18/22/52 14/18/44 15/35/43
s 1
f 20/24/53 19/23/54 15/19/46 16/20/45
s 2
f 17/21/55 20/24/56 16/20/48 13/17/47
s 3
f 21/25/57 17/21/49 18/34/50 22/32/58
s 4
f 23/30/59 22/26/60 18/22/52 19/33/51
s 1
f 24/28/61 23/27/62 19/23/54 20/24/53
s 2
f 21/25/63 24/28/64 20/24/56 17/21/55
s 3
f 25/5/10 21/25/57 22/32/58 26/31/11
s 4
f 27/29/15 26/7/14 22/26/60 23/30/59
s 1
f 28/3/3 27/2/2 23/27/62 24/28/61
s 2
f 25/5/7 28/3/6 24/28/64 21/25/63
