# This file uses meters as units for non-parametric coordinates.

g default
v -400.000000 -7.224974 600.000000
v 0.000000 -7.224974 199.381226
v -400.000000 7.224974 600.000000
v 0.000000 7.224974 199.381226
v -800.000000 7.224974 600.000000
v -0.000000 7.224974 -201.785797
v -800.000000 -7.224974 600.000000
v -0.000000 -7.224974 -201.785797
v -105.770638 7.224974 199.283218
v -168.394226 7.224974 -199.855362
v -168.394226 -7.224974 -199.855362
v -105.770638 -7.224974 199.283218
v -214.835052 7.224974 232.530701
v -389.765228 7.224974 -141.625397
v -389.765228 -7.224974 -141.625397
v -214.835052 -7.224974 232.530701
v -306.030579 7.224974 289.815735
v -585.258911 7.224974 -16.128710
v -585.258911 -7.224974 -16.128710
v -306.030579 -7.224974 289.815735
v -367.270264 7.224974 380.143372
v -729.292664 7.224974 175.386795
v -729.292664 -7.224974 175.386795
v -367.270264 -7.224974 380.143372
v -392.674103 7.224974 482.987091
v -790.007385 7.224974 402.281738
v -790.007385 -7.224974 402.281738
v -392.674103 -7.224974 482.987091
vt 0.454742 0.997787
vt 0.397550 0.958000
vt 0.401348 0.952276
vt 0.448956 0.992032
vt 0.357670 0.938659
vt 0.359571 0.932222
vt 0.316838 0.934025
vt 0.316475 0.927354
vt 0.274171 0.943728
vt 0.271795 0.937476
vt 0.572980 0.865301
vt 0.497644 0.804367
vt 0.127863 0.820631
vt 0.079558 0.866122
vt 0.406388 0.762712
vt 0.212739 0.773967
vt 0.309838 0.752272
vt 0.309768 0.752778
vt 0.212558 0.773320
vt 0.406382 0.762969
vt 0.204860 0.996518
vt 0.573194 0.865263
vt 0.079127 0.866649
vt 0.200230 0.991588
vt 0.234064 0.959353
vt 0.127728 0.821565
vt 0.497378 0.804412
vt 0.238100 0.964777
vt 0.233793 0.959076
vt 0.271980 0.936965
vt 0.501237 0.798440
vt 0.408224 0.756074
vt 0.316015 0.927014
vt 0.309503 0.745417
vt 0.359336 0.932190
vt 0.210190 0.766905
vt 0.400935 0.952399
vt 0.123864 0.815905
vt 0.195311 0.996436
vt 0.448991 0.991590
vt 0.074207 0.871497
vt 0.074453 0.861495
vt 0.577357 0.859792
vt 0.577956 0.870184
vt 0.444554 0.997364
vt 0.199658 0.991486
vn 0.998046 0.000000 0.062485
vn 0.989100 0.000000 0.147246
vn 0.989100 0.000000 0.147246
vn 0.998046 0.000000 0.062485
vn 0.000000 1.000000 -0.000000
vn 0.000000 1.000000 -0.000000
vn 0.000000 1.000000 0.000000
vn 0.000000 1.000000 -0.000000
vn -0.998725 0.000000 -0.050475
vn -0.986417 0.000000 -0.164260
vn -0.986417 0.000000 -0.164260
vn -0.998725 0.000000 -0.050475
vn 0.000000 -1.000000 -0.000000
vn 0.000000 -1.000000 -0.000000
vn 0.000000 -1.000000 -0.000000
vn 0.000000 -1.000000 -0.000000
vn 1.000000 0.000000 -0.000000
vn 1.000000 0.000000 -0.000000
vn 1.000000 0.000000 -0.000000
vn 1.000000 0.000000 -0.000000
vn 0.000000 0.000000 1.000000
vn 0.000000 0.000000 1.000000
vn 0.000000 0.000000 1.000000
vn 0.000000 0.000000 1.000000
vn 0.000000 1.000000 -0.000000
vn 0.000000 1.000000 -0.000000
vn 0.000000 1.000000 -0.000000
vn 0.000000 1.000000 -0.000000
vn -0.152544 0.000000 -0.988297
vn -0.152544 0.000000 -0.988297
vn -0.011463 0.000000 -0.999934
vn -0.011463 0.000000 -0.999934
vn 0.000000 -1.000000 -0.000000
vn 0.000000 -1.000000 -0.000000
vn 0.000000 -1.000000 0.000000
vn 0.000000 -1.000000 0.000000
vn 0.152497 0.000000 0.988304
vn 0.152497 0.000000 0.988304
vn -0.000926 0.000000 1.000000
vn -0.000926 0.000000 1.000000
vn 0.000000 1.000000 -0.000000
vn 0.000000 1.000000 0.000000
vn -0.403302 0.000000 -0.915067
vn -0.403302 0.000000 -0.915067
vn 0.000000 -1.000000 -0.000000
vn 0.000000 -1.000000 0.000000
vn 0.411936 0.000000 0.911213
vn 0.411936 0.000000 0.911213
vn 0.000000 1.000000 0.000000
vn 0.000000 1.000000 0.000000
vn -0.682456 0.000000 -0.730927
vn -0.682456 0.000000 -0.730927
vn 0.000000 -1.000000 0.000000
vn 0.000000 -1.000000 0.000000
vn 0.695652 0.000000 0.718379
vn 0.695652 0.000000 0.718379
vn 0.000000 1.000000 0.000000
vn 0.000000 1.000000 0.000000
vn -0.898221 0.000000 -0.439543
vn -0.898221 0.000000 -0.439543
vn 0.000000 -1.000000 0.000000
vn 0.000000 -1.000000 0.000000
vn 0.912422 0.000000 0.409250
vn 0.912422 0.000000 0.409250
s 1
g RoadTurn90Small
f 1/45/1 28/2/2 25/3/3 3/4/4
s 2
f 3/4/5 25/3/6 26/12/7 5/11/8
s 3
f 5/11/9 26/12/10 27/31/11 7/43/12
s 4
f 7/14/13 27/13/14 28/29/15 1/46/16
s off
f 2/39/17 8/41/18 6/23/19 4/24/20
f 7/44/21 1/1/22 3/4/23 5/11/24
s 2
f 9/25/25 4/24/26 6/23/27 10/26/28
s 3
f 11/38/29 10/26/30 6/23/31 8/42/32
s 4
f 12/37/33 11/27/34 8/22/35 2/40/36
s 1
f 9/25/37 12/28/38 2/21/39 4/24/40
s 2
f 13/10/41 9/25/25 10/26/28 14/19/42
s 3
f 15/36/43 14/19/44 10/26/30 11/38/29
s 4
f 16/35/45 15/20/46 11/27/34 12/37/33
s 1
f 13/10/47 16/9/48 12/28/38 9/25/37
s 2
f 17/8/49 13/10/41 14/19/42 18/17/50
s 3
f 19/34/51 18/17/52 14/19/44 15/36/43
s 4
f 20/33/53 19/18/54 15/20/46 16/35/45
s 1
f 17/8/55 20/7/56 16/9/48 13/10/47
s 2
f 21/6/57 17/8/49 18/17/50 22/15/58
s 3
f 23/32/59 22/15/60 18/17/52 19/34/51
s 4
f 24/30/61 23/16/62 19/18/54 20/33/53
s 1
f 21/6/63 24/5/64 20/7/56 17/8/55
s 2
f 25/3/6 21/6/57 22/15/58 26/12/7
s 3
f 27/31/11 26/12/10 22/15/60 23/32/59
s 4
f 28/29/15 27/13/14 23/16/62 24/30/61
s 1
f 25/3/3 28/2/2 24/5/64 21/6/63
