# This file uses meters as units for non-parametric coordinates.

g default
v -859.514099 -7.224974 430.072571
v 0.000000 -7.224974 200.000015
v -859.514099 7.224974 430.072571
v 0.000000 7.224974 200.000015
v -1059.514160 7.224974 83.662384
v 0.000000 7.224974 -200.000000
v -1059.514160 -7.224974 83.662384
v -0.000000 -7.224974 -200.000000
v -184.690018 7.224974 -193.675827
v -184.690018 -7.224974 -193.675827
v -149.851700 -7.224974 206.538162
v -149.851700 7.224974 206.538162
v -367.976349 7.224974 -169.562561
v -367.976349 -7.224974 -169.562561
v -299.428345 -7.224974 226.255325
v -299.428345 7.224974 226.255325
v -548.466064 7.224974 -129.577454
v -548.466064 -7.224974 -129.577454
v -445.008209 -7.224974 258.545563
v -445.008209 7.224974 258.545563
v -724.787354 7.224974 -74.024414
v -724.787354 -7.224974 -74.024414
v -588.069763 -7.224974 303.619568
v -588.069763 7.224974 303.619568
v -895.600159 7.224974 -3.325623
v -895.600159 -7.224974 -3.325623
v -726.661987 -7.224974 360.982330
v -726.661987 7.224974 360.982330
v -864.699219 14.743838 421.091797
v -0.000000 14.743838 189.629913
v -873.503357 14.743838 405.842468
v 0.000000 14.743838 172.021515
v -1044.665039 14.743838 109.381767
v -0.000000 14.743838 -170.301819
v -1053.469238 14.743838 94.132446
v 0.000000 14.743838 -187.910217
v -175.055328 14.743838 -180.588226
v -174.415283 14.743838 -162.971573
v -350.219971 14.743838 -158.448105
v -348.900330 14.743838 -140.811661
v -525.490845 14.743838 -120.977432
v -523.414246 14.743838 -103.324554
v -700.641174 14.743837 -67.356277
v -697.696533 14.743837 -49.715214
v -875.112000 14.743837 3.488806
v -871.161377 14.743837 21.055233
v -151.191330 14.743838 196.292679
v -152.906723 14.743838 178.767242
v -301.110443 14.743838 216.211517
v -304.523254 14.743838 198.933838
v -448.502838 14.743838 249.179382
v -453.577423 14.743838 232.310822
v -592.148499 14.743837 294.855499
v -598.832336 14.743837 278.551819
v -730.878296 14.743837 352.771545
v -739.102844 14.743837 337.180847
vt 0.902861 0.220788
vt 0.891901 0.212497
vt 0.891634 0.213312
vt 0.572770 0.212263
vt 0.944414 0.037746
vt 0.525096 0.042198
vt 0.525668 0.041711
vt 0.943938 0.037490
vt 0.574375 0.218989
vt 0.566050 0.214146
vt 0.889927 0.220045
vt 0.572589 0.211826
vt 0.592720 0.026219
vt 0.873673 0.022346
vt 0.626562 0.206808
vt 0.838622 0.199887
vt 0.625268 0.199991
vt 0.661618 0.015921
vt 0.801841 0.013582
vt 0.679197 0.199175
vt 0.785957 0.191493
vt 0.678526 0.192311
vt 0.731593 0.011640
vt 0.731191 0.011340
vt 0.732226 0.196476
vt 0.732488 0.190388
vt 0.732205 0.189591
vt 0.802288 0.013626
vt 0.661954 0.016823
vt 0.785225 0.198920
vt 0.678146 0.191860
vt 0.785887 0.192064
vt 0.873377 0.022259
vt 0.592479 0.025953
vt 0.837822 0.206789
vt 0.625208 0.199763
vt 0.839184 0.199976
vt 0.874592 0.015127
vt 0.802816 0.006470
vt 0.731475 0.004560
vt 0.660876 0.008926
vt 0.591399 0.019361
vt 0.518367 0.044085
vt 0.523535 0.035409
vt 0.945956 0.030580
vt 0.951567 0.039668
vt 0.461830 0.952660
vt 0.551129 0.952660
vt 0.551129 0.971676
vt 0.461830 0.971676
vt 0.906987 0.977571
vt 0.995835 0.977571
vt 0.995835 0.996587
vt 0.906987 0.996587
vt 0.818325 0.977571
vt 0.818325 0.996587
vt 0.729027 0.977571
vt 0.729027 0.996587
vt 0.640473 0.977571
vt 0.640473 0.996587
vt 0.551129 0.977571
vt 0.551129 0.996587
vt 0.461830 0.977571
vt 0.461830 0.996587
vt 0.906987 0.952660
vt 0.995835 0.952660
vt 0.995835 0.971676
vt 0.906987 0.971676
vt 0.818325 0.952660
vt 0.818325 0.971676
vt 0.729027 0.952660
vt 0.729027 0.971676
vt 0.640473 0.952660
vt 0.640473 0.971676
vn 0.461390 0.000000 0.887197
vn 0.422279 0.000000 0.906466
vn 0.422279 0.000000 0.906466
vn 0.461390 0.000000 0.887197
vn 0.000000 1.000000 0.000000
vn 0.000000 1.000000 0.000000
vn 0.000000 1.000000 0.000000
vn 0.000000 1.000000 0.000000
vn -0.468771 0.000000 -0.883319
vn -0.426169 0.000000 -0.904643
vn -0.426169 0.000000 -0.904643
vn -0.468771 0.000000 -0.883319
vn 0.000000 -1.000000 0.000000
vn 0.000000 -1.000000 0.000000
vn 0.000000 -1.000000 0.000000
vn 0.000000 -1.000000 0.000000
vn 1.000000 -0.000000 -0.000000
vn 1.000000 -0.000000 -0.000000
vn 1.000000 -0.000000 -0.000000
vn 1.000000 -0.000000 -0.000000
vn -0.866025 0.000000 0.500000
vn -0.866025 0.000000 0.500000
vn -0.866025 0.000000 0.500000
vn -0.866025 0.000000 0.500000
vn -0.082434 0.000000 -0.996597
vn -0.034222 0.000000 -0.999414
vn -0.034222 0.000000 -0.999414
vn -0.082434 0.000000 -0.996597
vn 0.000000 -1.000000 -0.000000
vn 0.000000 -1.000000 -0.000000
vn 0.000000 -1.000000 0.000000
vn 0.000000 -1.000000 0.000000
vn 0.087350 0.000000 0.996178
vn 0.087350 0.000000 0.996178
vn 0.043589 0.000000 0.999050
vn 0.043589 0.000000 0.999050
vn 0.000000 1.000000 -0.000000
vn 0.000000 1.000000 -0.000000
vn 0.000000 1.000000 0.000000
vn 0.000000 1.000000 0.000000
vn -0.173530 0.000000 -0.984829
vn -0.173530 0.000000 -0.984829
vn 0.000000 -1.000000 -0.000000
vn 0.000000 -1.000000 -0.000000
vn 0.173530 0.000000 0.984829
vn 0.173530 0.000000 0.984829
vn 0.000000 1.000000 -0.000000
vn 0.000000 1.000000 -0.000000
vn -0.258645 0.000000 -0.965973
vn -0.258645 0.000000 -0.965973
vn -0.000000 -1.000000 0.000000
vn -0.000000 -1.000000 0.000000
vn 0.258891 0.000000 0.965907
vn 0.258891 0.000000 0.965907
vn -0.000000 1.000000 -0.000000
vn -0.000000 1.000000 -0.000000
vn -0.341794 0.000000 -0.939775
vn -0.341794 0.000000 -0.939775
vn -0.000000 -1.000000 0.000000
vn -0.000000 -1.000000 0.000000
vn 0.341794 0.000000 0.939775
vn 0.341794 0.000000 0.939775
vn -0.000000 1.000000 -0.000000
vn -0.000000 1.000000 0.000000
vn 0.000000 1.000000 -0.000000
vn 0.000000 1.000000 -0.000000
vn 0.000000 1.000000 -0.000000
vn 0.000000 1.000000 -0.000000
vn 0.000000 1.000000 0.000000
vn 0.000000 1.000000 0.000000
vn 0.000000 1.000000 0.000000
vn 0.000000 1.000000 0.000000
vn 0.000000 1.000000 0.000000
vn 0.000000 1.000000 0.000000
vn -0.000000 1.000000 0.000000
vn -0.000000 1.000000 0.000000
vn -0.000000 1.000000 -0.000000
vn -0.000000 1.000000 -0.000000
vn 0.000000 1.000000 -0.000000
vn 0.000000 1.000000 -0.000000
vn 0.000000 1.000000 -0.000000
vn 0.000000 1.000000 -0.000000
vn 0.000000 1.000000 -0.000000
vn 0.000000 1.000000 -0.000000
vn 0.000000 1.000000 -0.000000
vn 0.000000 1.000000 -0.000000
vn 0.000000 1.000000 0.000000
vn 0.000000 1.000000 0.000000
vn -0.000000 1.000000 -0.000000
vn -0.000000 1.000000 -0.000000
vn -0.000000 1.000000 -0.000000
vn -0.000000 1.000000 -0.000000
s 1
g RoadTurn30Small
f 1/11/1 27/35/2 28/37/3 3/3/4
s 2
f 3/3/5 28/37/6 25/33/7 5/5/8
s 3
f 5/5/9 25/33/10 26/38/11 7/45/12
s 4
f 7/7/13 26/34/14 27/36/15 1/12/16
s off
f 2/10/17 8/43/18 6/6/19 4/4/20
f 7/46/21 1/1/22 3/3/23 5/5/24
s 3
f 9/13/25 6/6/26 8/44/27 10/42/28
s 4
f 11/16/29 10/14/30 8/8/31 2/2/32
s 1
f 12/17/33 11/15/34 2/9/35 4/4/36
s 2
f 9/13/37 12/17/38 4/4/39 6/6/40
s 3
f 13/18/41 9/13/25 10/42/28 14/41/42
s 4
f 15/21/43 14/19/44 10/14/30 11/16/29
s 1
f 16/22/45 15/20/46 11/15/34 12/17/33
s 2
f 13/18/47 16/22/48 12/17/38 9/13/37
s 3
f 17/23/49 13/18/41 14/41/42 18/40/50
s 4
f 19/26/51 18/24/52 14/19/44 15/21/43
s 1
f 20/27/53 19/25/54 15/20/46 16/22/45
s 2
f 17/23/55 20/27/56 16/22/48 13/18/47
s 3
f 21/28/57 17/23/49 18/40/50 22/39/58
s 4
f 23/31/59 22/29/60 18/24/52 19/26/51
s 1
f 24/32/61 23/30/62 19/25/54 20/27/53
s 2
f 21/28/63 24/32/64 20/27/56 17/23/55
s 3
f 25/33/10 21/28/57 22/39/58 26/38/11
s 4
f 27/36/15 26/34/14 22/29/60 23/31/59
s 1
f 28/37/3 27/35/2 23/30/62 24/32/61
s 2
f 25/33/7 28/37/6 24/32/64 21/28/63
s 9
f 29/47/65 55/48/66 56/49/67 31/50/68
s 10
f 38/51/69 34/52/70 36/53/71 37/54/72
f 40/55/73 38/51/69 37/54/72 39/56/74
f 42/57/75 40/55/73 39/56/74 41/58/76
f 44/59/77 42/57/75 41/58/76 43/60/78
f 46/61/79 44/59/77 43/60/78 45/62/80
f 33/63/81 46/61/79 45/62/80 35/64/82
s 9
f 47/65/83 30/66/84 32/67/85 48/68/86
f 49/69/87 47/65/83 48/68/86 50/70/88
f 51/71/89 49/69/87 50/70/88 52/72/90
f 53/73/91 51/71/89 52/72/90 54/74/92
f 55/48/66 53/73/91 54/74/92 56/49/67
