# This file uses meters as units for non-parametric coordinates.

g default
v -800.000000 -7.224973 996.781555
v -0.000000 -7.224973 194.995743
v -800.000000 7.224974 996.781555
v -0.000000 7.224974 194.995743
v -1200.000000 7.224974 996.781555
v -0.000000 7.224974 -203.218460
v -1200.000000 -7.224973 996.781555
v -0.000000 -7.224973 -203.218460
v -168.394226 7.224974 196.926178
v -252.715958 7.224974 -203.218460
v -252.715958 -7.224973 -203.218460
v -168.394226 -7.224973 196.926178
v -389.765228 7.224974 255.156143
v -569.547729 7.224974 -118.997986
v -569.547729 -7.224973 -118.997986
v -389.765228 -7.224973 255.156143
v -585.258911 7.224974 380.652832
v -858.462036 7.224974 63.791946
v -858.462036 -7.224973 63.791946
v -585.258911 -7.224973 380.652832
v -729.292664 7.224974 572.168335
v -1086.555176 7.224974 367.088074
v -1086.555176 -7.224973 367.088074
v -729.292664 -7.224973 572.168335
v -790.007385 7.224974 799.063293
v -1190.199951 7.224974 716.658325
v -1190.199951 -7.224973 716.658325
v -790.007385 -7.224973 799.063293
vt 0.557754 0.821901
vt 0.484647 0.764804
vt 0.488014 0.759823
vt 0.552314 0.816202
vt 0.567925 0.625833
vt 0.663929 0.709651
vt 0.083208 0.627862
vt 0.017585 0.683096
vt 0.121668 0.800127
vt 0.663808 0.709641
vt 0.017700 0.682822
vt 0.117894 0.795613
vt 0.161964 0.758813
vt 0.083501 0.627783
vt 0.567858 0.626004
vt 0.165092 0.763815
vt 0.238104 0.720607
vt 0.196502 0.570657
vt 0.450136 0.567383
vt 0.239912 0.726192
vt 0.324322 0.706408
vt 0.324340 0.548926
vt 0.324398 0.549049
vt 0.324358 0.712279
vt 0.408940 0.719574
vt 0.449993 0.567425
vt 0.196903 0.570684
vt 0.407102 0.725195
vt 0.161652 0.758571
vt 0.238205 0.720978
vt 0.324422 0.706186
vt 0.408535 0.719443
vt 0.487658 0.760153
vt 0.113437 0.799571
vt 0.548314 0.820755
vt 0.571246 0.620823
vt 0.451780 0.561757
vt 0.324265 0.543017
vt 0.194670 0.565053
vt 0.080361 0.622764
vt 0.013244 0.686781
vt 0.552260 0.815893
vt 0.667947 0.705037
vt 0.117669 0.795605
vt 0.668219 0.714045
vt 0.013858 0.678216
vn 0.998725 0.000000 0.050475
vn 0.986417 0.000000 0.164260
vn 0.986417 0.000000 0.164260
vn 0.998725 0.000000 0.050475
vn 0.000000 1.000000 0.000000
vn 0.000000 1.000000 0.000000
vn 0.000000 1.000000 -0.000000
vn 0.000000 1.000000 0.000000
vn -0.999389 0.000000 -0.034963
vn -0.984156 0.000000 -0.177304
vn -0.984156 0.000000 -0.177304
vn -0.999389 0.000000 -0.034963
vn 0.000000 -1.000000 0.000000
vn 0.000000 -1.000000 0.000000
vn 0.000000 -1.000000 0.000000
vn 0.000000 -1.000000 0.000000
vn 1.000000 0.000000 -0.000000
vn 1.000000 0.000000 -0.000000
vn 1.000000 0.000000 -0.000000
vn 1.000000 0.000000 -0.000000
vn 0.000000 0.000000 1.000000
vn 0.000000 0.000000 1.000000
vn 0.000000 0.000000 1.000000
vn 0.000000 0.000000 1.000000
vn 0.000000 1.000000 0.000000
vn 0.000000 1.000000 0.000000
vn 0.000000 1.000000 0.000000
vn 0.000000 1.000000 0.000000
vn -0.146282 0.000000 -0.989243
vn -0.146282 0.000000 -0.989243
vn 0.000000 0.000000 -1.000000
vn 0.000000 0.000000 -1.000000
vn 0.000000 -1.000000 0.000000
vn 0.000000 -1.000000 0.000000
vn 0.000000 -1.000000 -0.000000
vn 0.000000 -1.000000 -0.000000
vn 0.152544 0.000000 0.988297
vn 0.152544 0.000000 0.988297
vn 0.011463 0.000000 0.999934
vn 0.011463 0.000000 0.999934
vn 0.000000 1.000000 0.000000
vn 0.000000 1.000000 -0.000000
vn -0.403349 0.000000 -0.915046
vn -0.403349 0.000000 -0.915046
vn 0.000000 -1.000000 0.000000
vn 0.000000 -1.000000 0.000000
vn 0.403302 0.000000 0.915067
vn 0.403302 0.000000 0.915067
vn 0.000000 1.000000 0.000000
vn 0.000000 1.000000 0.000000
vn -0.684984 0.000000 -0.728558
vn -0.684984 0.000000 -0.728558
vn 0.000000 -1.000000 0.000000
vn 0.000000 -1.000000 0.000000
vn 0.682456 0.000000 0.730927
vn 0.682456 0.000000 0.730927
vn 0.000000 1.000000 -0.000000
vn 0.000000 1.000000 0.000000
vn -0.891511 0.000000 -0.452999
vn -0.891511 0.000000 -0.452999
vn 0.000000 -1.000000 -0.000000
vn 0.000000 -1.000000 -0.000000
vn 0.898221 0.000000 0.439543
vn 0.898221 0.000000 0.439543
s 1
g RoadTurn90Large
f 1/35/1 28/2/2 25/3/3 3/4/4
s 2
f 3/4/5 25/3/6 26/5/7 5/6/8
s 3
f 5/6/9 26/5/10 27/36/11 7/43/12
s 4
f 7/8/13 27/7/14 28/29/15 1/44/16
s off
f 2/34/17 8/41/18 6/11/19 4/12/20
f 7/45/21 1/1/22 3/4/23 5/6/24
s 2
f 9/13/25 4/12/26 6/11/27 10/14/28
s 3
f 11/40/29 10/14/30 6/11/31 8/46/32
s 4
f 12/33/33 11/15/34 8/10/35 2/42/36
s 1
f 9/13/37 12/16/38 2/9/39 4/12/40
s 2
f 13/17/41 9/13/25 10/14/28 14/18/42
s 3
f 15/39/43 14/18/44 10/14/30 11/40/29
s 4
f 16/32/45 15/19/46 11/15/34 12/33/33
s 1
f 13/17/47 16/20/48 12/16/38 9/13/37
s 2
f 17/21/49 13/17/41 14/18/42 18/22/50
s 3
f 19/38/51 18/22/52 14/18/44 15/39/43
s 4
f 20/31/53 19/23/54 15/19/46 16/32/45
s 1
f 17/21/55 20/24/56 16/20/48 13/17/47
s 2
f 21/25/57 17/21/49 18/22/50 22/26/58
s 3
f 23/37/59 22/26/60 18/22/52 19/38/51
s 4
f 24/30/61 23/27/62 19/23/54 20/31/53
s 1
f 21/25/63 24/28/64 20/24/56 17/21/55
s 2
f 25/3/6 21/25/57 22/26/58 26/5/7
s 3
f 27/36/11 26/5/10 22/26/60 23/37/59
s 4
f 28/29/15 27/7/14 23/27/62 24/30/61
s 1
f 25/3/3 28/2/2 24/28/64 21/25/63
