# This file uses meters as units for non-parametric coordinates.

g default
v -400.000000 -7.224974 600.000000
v 0.000000 -7.224974 200.000000
v -400.000000 7.224974 600.000000
v 0.000000 7.224974 200.000000
v -800.000000 7.224974 600.000000
v 0.000000 7.224974 -200.000000
v -800.000000 -7.224974 600.000000
v 0.000000 -7.224974 -200.000000
v -105.770638 7.224974 199.283218
v -168.394226 7.224974 -199.855362
v -168.394226 -7.224974 -199.855362
v -105.770638 -7.224974 199.283218
v -214.835052 7.224974 232.530701
v -389.765228 7.224974 -141.625397
v -389.765228 -7.224974 -141.625397
v -214.835052 -7.224974 232.530701
v -306.030579 7.224974 289.815735
v -585.258911 7.224974 -16.128710
v -585.258911 -7.224974 -16.128710
v -306.030579 -7.224974 289.815735
v -367.270264 7.224974 380.143372
v -729.292664 7.224974 175.386795
v -729.292664 -7.224974 175.386795
v -367.270264 -7.224974 380.143372
v -392.674103 7.224974 482.987091
v -790.007385 7.224974 402.281738
v -790.007385 -7.224974 402.281738
v -392.674103 -7.224974 482.987091
v -410.370117 14.743838 600.177795
v 0.000000 14.743838 189.629913
v -427.978485 14.743838 600.095215
v -0.000000 14.743838 172.021515
v -770.301880 14.743838 599.822144
v -0.000000 14.743838 -170.301819
v -787.910278 14.743838 599.822144
v -0.000000 14.743838 -187.910217
v -163.616699 14.743838 -186.981964
v -159.618088 14.743838 -169.833618
v -381.055328 14.743838 -129.689468
v -373.366364 14.743838 -113.848427
v -573.264404 14.743838 -8.443970
v -560.475586 14.743838 3.659729
v -714.010010 14.743837 176.583038
v -697.376770 14.743837 182.361725
v -773.920532 14.743837 402.804321
v -756.312134 14.743837 402.804321
v -114.694443 14.743838 172.358307
v -111.119118 14.743838 189.599915
v -225.614868 14.743838 207.777252
v -218.714798 14.743838 223.977386
v -324.394745 14.743838 268.211853
v -313.202545 14.743838 281.805664
v -393.008392 14.743837 367.660522
v -377.122162 14.743837 375.255402
v -420.746918 14.743837 474.790588
v -403.756439 14.743837 479.414429
vt 0.426621 0.986767
vt 0.377593 0.952494
vt 0.381247 0.947385
vt 0.420835 0.981012
vt 0.338805 0.929727
vt 0.340911 0.923979
vt 0.294082 0.921735
vt 0.293901 0.915684
vt 0.250482 0.932314
vt 0.248237 0.926625
vt 0.543120 0.852186
vt 0.476182 0.796082
vt 0.099326 0.809243
vt 0.047661 0.861347
vt 0.385887 0.747592
vt 0.184597 0.758225
vt 0.282591 0.735275
vt 0.282591 0.735275
vt 0.184597 0.758225
vt 0.385887 0.747592
vt 0.176911 0.987878
vt 0.543120 0.852186
vt 0.047661 0.861347
vt 0.172463 0.983577
vt 0.204660 0.950540
vt 0.099326 0.809243
vt 0.476182 0.796082
vt 0.208383 0.955482
vt 0.204660 0.950540
vt 0.248237 0.926625
vt 0.479678 0.790796
vt 0.387747 0.741651
vt 0.293901 0.915684
vt 0.282262 0.729053
vt 0.340911 0.923979
vt 0.182267 0.752430
vt 0.381247 0.947385
vt 0.095564 0.804226
vt 0.168052 0.988085
vt 0.420835 0.981012
vt 0.043244 0.865854
vt 0.043140 0.856845
vt 0.547243 0.847247
vt 0.547819 0.856563
vt 0.416723 0.985836
vt 0.172463 0.983577
vt 0.906987 0.952660
vt 0.995835 0.952660
vt 0.995835 0.971676
vt 0.906987 0.971676
vt 0.906987 0.977571
vt 0.995835 0.977571
vt 0.995835 0.996587
vt 0.906987 0.996587
vt 0.818325 0.977571
vt 0.818325 0.996587
vt 0.729027 0.977571
vt 0.729027 0.996587
vt 0.640473 0.977571
vt 0.640473 0.996587
vt 0.551129 0.977571
vt 0.551129 0.996587
vt 0.461830 0.977571
vt 0.461830 0.996587
vt 0.818325 0.952660
vt 0.818325 0.971676
vt 0.729027 0.952660
vt 0.729027 0.971676
vt 0.640473 0.952660
vt 0.640473 0.971676
vt 0.551129 0.952660
vt 0.551129 0.971676
vt 0.461830 0.952660
vt 0.461830 0.971676
vn 0.998046 0.000000 0.062485
vn 0.989100 0.000000 0.147246
vn 0.989100 0.000000 0.147246
vn 0.998046 0.000000 0.062485
vn 0.000000 1.000000 -0.000000
vn 0.000000 1.000000 -0.000000
vn 0.000000 1.000000 0.000000
vn 0.000000 1.000000 -0.000000
vn -0.998725 0.000000 -0.050475
vn -0.986417 0.000000 -0.164260
vn -0.986417 0.000000 -0.164260
vn -0.998725 0.000000 -0.050475
vn 0.000000 -1.000000 -0.000000
vn 0.000000 -1.000000 -0.000000
vn 0.000000 -1.000000 -0.000000
vn 0.000000 -1.000000 -0.000000
vn 1.000000 0.000000 0.000000
vn 1.000000 0.000000 0.000000
vn 1.000000 0.000000 0.000000
vn 1.000000 0.000000 0.000000
vn 0.000000 0.000000 1.000000
vn 0.000000 0.000000 1.000000
vn 0.000000 0.000000 1.000000
vn 0.000000 0.000000 1.000000
vn 0.000000 1.000000 -0.000000
vn 0.000000 1.000000 -0.000000
vn 0.000000 1.000000 -0.000000
vn 0.000000 1.000000 -0.000000
vn -0.148117 0.000000 -0.988970
vn -0.148117 0.000000 -0.988970
vn -0.000859 0.000000 -1.000000
vn -0.000859 0.000000 -1.000000
vn 0.000000 -1.000000 -0.000000
vn 0.000000 -1.000000 -0.000000
vn 0.000000 -1.000000 0.000000
vn 0.000000 -1.000000 0.000000
vn 0.149715 0.000000 0.988729
vn 0.149715 0.000000 0.988729
vn -0.006777 0.000000 0.999977
vn -0.006777 0.000000 0.999977
vn 0.000000 1.000000 -0.000000
vn 0.000000 1.000000 0.000000
vn -0.403302 0.000000 -0.915067
vn -0.403302 0.000000 -0.915067
vn 0.000000 -1.000000 -0.000000
vn 0.000000 -1.000000 0.000000
vn 0.411936 0.000000 0.911213
vn 0.411936 0.000000 0.911213
vn 0.000000 1.000000 0.000000
vn 0.000000 1.000000 0.000000
vn -0.682456 0.000000 -0.730927
vn -0.682456 0.000000 -0.730927
vn 0.000000 -1.000000 0.000000
vn 0.000000 -1.000000 0.000000
vn 0.695652 0.000000 0.718379
vn 0.695652 0.000000 0.718379
vn 0.000000 1.000000 0.000000
vn 0.000000 1.000000 0.000000
vn -0.898221 0.000000 -0.439543
vn -0.898221 0.000000 -0.439543
vn 0.000000 -1.000000 0.000000
vn 0.000000 -1.000000 0.000000
vn 0.912422 0.000000 0.409250
vn 0.912422 0.000000 0.409250
vn 0.000000 1.000000 0.000000
vn 0.000000 1.000000 0.000000
vn 0.000000 1.000000 0.000000
vn 0.000000 1.000000 0.000000
vn 0.000000 1.000000 -0.000000
vn 0.000000 1.000000 -0.000000
vn 0.000000 1.000000 -0.000000
vn 0.000000 1.000000 -0.000000
vn 0.000000 1.000000 0.000000
vn 0.000000 1.000000 0.000000
vn -0.000000 1.000000 0.000000
vn -0.000000 1.000000 0.000000
vn -0.000000 1.000000 0.000000
vn -0.000000 1.000000 0.000000
vn 0.000000 1.000000 -0.000000
vn 0.000000 1.000000 -0.000000
vn 0.000000 1.000000 -0.000000
vn 0.000000 1.000000 -0.000000
vn 0.000000 1.000000 0.000000
vn 0.000000 1.000000 0.000000
vn -0.000000 1.000000 0.000000
vn -0.000000 1.000000 0.000000
vn -0.000000 1.000000 0.000000
vn -0.000000 1.000000 0.000000
vn 0.000000 1.000000 0.000000
vn 0.000000 1.000000 0.000000
vn 0.000000 1.000000 0.000000
vn 0.000000 1.000000 0.000000
s 1
g RoadTurn90Small
f 1/45/1 28/2/2 25/3/3 3/4/4
s 2
f 3/4/5 25/3/6 26/12/7 5/11/8
s 3
f 5/11/9 26/12/10 27/31/11 7/43/12
s 4
f 7/14/13 27/13/14 28/29/15 1/46/16
s off
f 2/39/17 8/41/18 6/23/19 4/24/20
f 7/44/21 1/1/22 3/4/23 5/11/24
s 2
f 9/25/25 4/24/26 6/23/27 10/26/28
s 3
f 11/38/29 10/26/30 6/23/31 8/42/32
s 4
f 12/37/33 11/27/34 8/22/35 2/40/36
s 1
f 9/25/37 12/28/38 2/21/39 4/24/40
s 2
f 13/10/41 9/25/25 10/26/28 14/19/42
s 3
f 15/36/43 14/19/44 10/26/30 11/38/29
s 4
f 16/35/45 15/20/46 11/27/34 12/37/33
s 1
f 13/10/47 16/9/48 12/28/38 9/25/37
s 2
f 17/8/49 13/10/41 14/19/42 18/17/50
s 3
f 19/34/51 18/17/52 14/19/44 15/36/43
s 4
f 20/33/53 19/18/54 15/20/46 16/35/45
s 1
f 17/8/55 20/7/56 16/9/48 13/10/47
s 2
f 21/6/57 17/8/49 18/17/50 22/15/58
s 3
f 23/32/59 22/15/60 18/17/52 19/34/51
s 4
f 24/30/61 23/16/62 19/18/54 20/33/53
s 1
f 21/6/63 24/5/64 20/7/56 17/8/55
s 2
f 25/3/6 21/6/57 22/15/58 26/12/7
s 3
f 27/31/11 26/12/10 22/15/60 23/32/59
s 4
f 28/29/15 27/13/14 23/16/62 24/30/61
s 1
f 25/3/3 28/2/2 24/5/64 21/6/63
s 9
f 48/47/65 30/48/66 32/49/67 47/50/68
s 10
f 38/51/69 34/52/70 36/53/71 37/54/72
f 40/55/73 38/51/69 37/54/72 39/56/74
f 42/57/75 40/55/73 39/56/74 41/58/76
f 44/59/77 42/57/75 41/58/76 43/60/78
f 46/61/79 44/59/77 43/60/78 45/62/80
f 33/63/81 46/61/79 45/62/80 35/64/82
s 9
f 50/65/83 48/47/65 47/50/68 49/66/84
f 52/67/85 50/65/83 49/66/84 51/68/86
f 54/69/87 52/67/85 51/68/86 53/70/88
f 56/71/89 54/69/87 53/70/88 55/72/90
f 29/73/91 56/71/89 55/72/90 31/74/92
