# This file uses meters as units for non-parametric coordinates.

g default
v -50.000000 -50.000000 50.000000
v 50.000000 -50.000000 50.000000
v -50.000000 18.824883 -61.757927
v 50.000000 18.824883 -61.757927
v -50.000000 -50.000000 -61.757927
v 50.000000 -50.000000 -61.757927
v -50.000000 -39.697426 -61.757927
v 50.000000 -39.697426 -61.757927
v 50.000000 -39.697426 20.175468
v -50.000000 -39.697426 20.175468
v -50.000000 -23.535252 -61.757927
v 50.000000 -23.535252 -61.757927
v 50.000000 -23.419189 -12.491401
v -50.000000 -23.419189 -12.491401
v -50.000000 -11.360382 -61.757927
v 50.000000 -11.360382 -61.757927
v 50.000000 -11.289274 -31.384386
v -50.000000 -11.289274 -31.384386
v -50.000000 2.563942 -61.757927
v 50.000000 2.563942 -61.757927
v 50.000000 2.586308 -47.567902
v -50.000000 2.586308 -47.567902
v -50.000000 16.517832 -61.757927
v 50.000000 16.517832 -61.757927
v 50.000000 16.517832 -60.042385
v -50.000000 16.517832 -60.042385
vt 0.682264 0.241986
vt 0.000977 0.575979
vt 0.680564 0.180745
vt 0.682264 0.181245
vt 0.682264 0.003317
vt 0.000977 0.286147
vt 0.374572 0.002817
vt 0.366945 0.999023
vt 0.000977 0.323851
vt 0.465880 0.033865
vt 0.366945 0.905950
vt 0.682264 0.034365
vt 0.000977 0.387740
vt 0.562120 0.086826
vt 0.366945 0.795583
vt 0.682264 0.086976
vt 0.000977 0.439881
vt 0.609611 0.129627
vt 0.366945 0.727316
vt 0.682264 0.129913
vt 0.000977 0.655897
vt 0.366945 0.655897
vt 0.715476 0.181312
vt 0.753217 0.130127
vt 0.647352 0.180812
vt 0.000977 0.727316
vt 0.000977 0.502217
vt 0.680564 0.129413
vt 0.366945 0.502217
vt 0.366945 0.439881
vt 0.800708 0.087326
vt 0.000977 0.795583
vt 0.680564 0.086476
vt 0.366945 0.387740
vt 0.896948 0.034365
vt 0.000977 0.905950
vt 0.680564 0.033865
vt 0.366945 0.323851
vt 0.366945 0.000977
vt 0.988256 0.003317
vt 0.000977 0.000977
vt 0.000977 0.999023
vt 0.680564 0.002817
vt 0.366945 0.286147
vt 0.366945 0.575979
vt 0.680564 0.241486
vt 0.682264 0.235033
vt 0.366945 0.567536
vt 0.000977 0.567536
vt 0.680564 0.234533
vt 0.676758 0.234533
vt 0.000977 0.585137
vt 0.366945 0.585137
vt 0.686070 0.235033
vn 0.000000 0.000000 -1.000000
vn 0.000000 0.000000 -1.000000
vn 0.000000 0.000000 -1.000000
vn 0.000000 -1.000000 0.000000
vn 0.000000 -1.000000 0.000000
vn 0.000000 -1.000000 0.000000
vn 1.000000 0.000000 0.000000
vn 1.000000 0.000000 0.000000
vn 1.000000 0.000000 0.000000
vn -1.000000 0.000000 0.000000
vn -1.000000 0.000000 0.000000
vn -1.000000 0.000000 0.000000
vn 0.000000 0.945195 0.326508
vn 0.000000 0.920214 0.391415
vn 0.000000 0.945195 0.326508
vn 0.000000 0.000000 -1.000000
vn 0.000000 0.000000 -1.000000
vn 0.000000 0.000000 -1.000000
vn 1.000000 0.000000 0.000000
vn 1.000000 0.000001 0.000000
vn -1.000000 0.000000 0.000000
vn -1.000000 0.000000 0.000000
vn 0.000000 0.920215 0.391415
vn 0.000000 0.875855 0.482574
vn 0.000000 0.000000 -1.000000
vn 0.000000 0.000000 -1.000000
vn 1.000000 -0.000000 0.000000
vn 1.000000 -0.000001 0.000000
vn -1.000000 -0.000000 0.000000
vn -1.000000 -0.000000 0.000000
vn 0.000000 0.875855 0.482574
vn 0.000000 0.803306 0.595566
vn 0.000000 0.000000 -1.000000
vn 0.000000 0.000000 -1.000000
vn 1.000000 -0.000000 0.000000
vn 1.000000 -0.000000 0.000000
vn -1.000000 -0.000000 0.000000
vn -1.000000 -0.000000 0.000000
vn 0.000000 0.803306 0.595566
vn 0.000000 0.717681 0.696372
vn 0.000000 0.717681 0.696372
vn 0.000000 0.000000 -1.000000
vn 0.000000 0.000000 -1.000000
vn 1.000000 0.000000 0.000000
vn 1.000000 0.000000 0.000000
vn -1.000000 0.000000 0.000000
vn -1.000000 0.000000 0.000000
vn -1.000000 0.000000 0.000000
vn 0.000000 0.658013 0.753007
vn 0.000000 0.658013 0.753007
vn 0.000000 0.000000 -1.000000
vn 1.000000 0.000000 0.000000
vn 0.000000 0.596713 0.802455
vn 0.000000 0.596712 0.802456
vn -1.000000 0.000000 0.000000
vn 0.000000 0.000000 -1.000000
vn 0.000000 -1.000000 0.000000
vn 1.000000 0.000000 0.000000
s 1
g pCube1
f 3/45/1 24/49/2 23/48/3
s 2
f 5/44/4 2/41/5 1/39/6
s 3
f 2/7/7 8/37/8 9/10/9
s 4
f 5/5/10 1/40/11 10/35/12
s 5
f 2/42/13 9/36/14 1/8/15
s 1
f 7/38/16 6/6/17 5/44/18
s 3
f 9/10/9 12/33/19 13/14/20
s 4
f 7/12/21 10/35/12 14/31/22
s 5
f 10/11/23 9/36/14 13/32/24
s 1
f 11/34/25 8/9/26 7/38/16
s 3
f 13/14/20 16/28/27 17/18/28
s 4
f 11/16/29 14/31/22 18/24/30
s 5
f 14/15/31 13/32/24 17/26/32
s 1
f 15/30/33 12/13/34 11/34/25
s 3
f 17/18/28 20/3/35 21/25/36
s 4
f 15/20/37 18/24/30 22/23/38
s 5
f 18/19/39 21/21/40 22/22/41
s 1
f 19/29/42 16/17/43 15/30/33
s 3
f 21/25/36 24/50/44 25/51/45
s 4
f 23/47/46 26/54/47 3/1/48
s 5
f 22/22/41 25/52/49 26/53/50
s 1
f 23/48/3 20/27/51 19/29/42
s 3
f 25/51/45 24/50/44 4/46/52
s 5
f 26/53/50 4/2/53 3/45/54
f 26/53/50 25/52/49 4/2/53
f 22/22/41 21/21/40 25/52/49
f 18/19/39 17/26/32 21/21/40
f 14/15/31 17/26/32 18/19/39
f 10/11/23 13/32/24 14/15/31
f 1/8/15 9/36/14 10/11/23
s 4
f 11/16/29 18/24/30 15/20/37
f 15/20/37 22/23/38 19/4/55
f 19/4/55 22/23/38 26/54/47
f 19/4/55 26/54/47 23/47/46
f 7/12/21 14/31/22 11/16/29
f 5/5/10 10/35/12 7/12/21
s 1
f 3/45/1 4/2/56 24/49/2
f 23/48/3 24/49/2 20/27/51
f 19/29/42 20/27/51 16/17/43
f 15/30/33 16/17/43 12/13/34
f 11/34/25 12/13/34 8/9/26
f 7/38/16 8/9/26 6/6/17
s 2
f 5/44/4 6/6/57 2/41/5
s 3
f 2/7/7 6/43/58 8/37/8
f 9/10/9 8/37/8 12/33/19
f 13/14/20 12/33/19 16/28/27
f 17/18/28 16/28/27 20/3/35
f 21/25/36 20/3/35 24/50/44
